<svg width="192" height="62" viewBox="0 0 192 62" fill="none" xmlns="http://www.w3.org/2000/svg">
<g clip-path="url(#clip0_309_6638)">
<path d="M78.4865 42.788V43.518H70.9207V42.788C71.6507 42.788 72.3807 42.6553 72.9117 42.3234C73.509 41.9916 73.8408 41.6598 73.9735 41.3943L86.9151 10.0691H88.3088L100.653 39.4697C100.786 39.8679 100.985 40.1333 101.25 40.2661C101.516 40.3988 101.715 40.4652 101.98 40.4652C102.445 40.4652 102.976 40.2661 103.507 39.9342C104.038 39.6024 104.436 39.2706 104.768 38.9387C104.768 39.6024 104.569 40.2661 104.237 40.8634C103.905 41.4607 103.44 41.9252 102.843 42.3898C102.246 42.788 101.582 43.1198 100.852 43.3853C100.122 43.6508 99.2594 43.7171 98.463 43.7171C97.6002 43.7171 96.8038 43.5844 96.1401 43.3853C95.4764 43.1198 94.8791 42.8544 94.4146 42.3898C93.95 41.9916 93.5518 41.527 93.22 40.9961C92.8881 40.4652 92.6227 40.0006 92.3572 39.4033L89.968 33.6957H78.6192L75.5 41.2616C75.4336 41.4607 75.4336 41.5934 75.4336 41.6598C75.4336 42.1243 75.7654 42.3898 76.4291 42.5225C76.9601 42.7216 77.6901 42.788 78.4865 42.788ZM79.0174 32.5675H89.3707L84.1277 20.0905L79.0174 32.5675Z" fill="white"/>
<path d="M113.528 42.788V43.518H105.962V42.788C106.692 42.788 107.422 42.6553 107.953 42.3234C108.551 41.9916 108.883 41.6598 109.015 41.3943L121.89 10.0691H123.284L135.628 39.4697C135.761 39.8679 135.96 40.1333 136.226 40.2661C136.491 40.3988 136.69 40.4652 136.956 40.4652C137.42 40.4652 137.951 40.2661 138.482 39.9342C139.013 39.6024 139.411 39.2706 139.743 38.9387C139.743 39.6024 139.544 40.2661 139.212 40.8634C138.88 41.4607 138.416 41.9252 137.819 42.3898C137.221 42.788 136.558 43.1198 135.828 43.3853C135.098 43.6508 134.235 43.7171 133.438 43.7171C132.576 43.7171 131.779 43.5844 131.115 43.3853C130.452 43.1198 129.855 42.8544 129.39 42.3898C128.925 41.9916 128.527 41.527 128.195 40.9961C127.864 40.4652 127.598 40.0006 127.333 39.4033L124.943 33.6957H113.595L110.475 41.2616C110.409 41.4607 110.409 41.5934 110.409 41.6598C110.409 42.1243 110.741 42.3898 111.404 42.5225C112.002 42.7216 112.732 42.788 113.528 42.788ZM113.993 32.5675H124.412L119.169 20.0905L113.993 32.5675Z" fill="white"/>
<path d="M132.708 14.7148C132.708 13.7193 132.907 12.9229 133.306 12.3256C133.704 11.7283 134.168 11.2637 134.699 10.9319C135.23 10.6 135.828 10.4009 136.358 10.2682C136.956 10.1355 137.42 10.0691 137.686 10.0691C139.61 10.0691 141.137 10.4673 142.331 11.3301C143.46 12.1265 144.389 13.1883 144.986 14.3829L152.021 28.3864L159.255 12.4583C159.321 12.2592 159.388 12.1265 159.388 11.9274C159.388 11.4628 159.056 11.1973 158.392 11.131C157.729 11.0646 156.799 10.9982 155.738 10.9982V10.2682H164.764V10.9982C164.1 10.9982 163.569 10.9982 163.171 10.9982C162.772 10.9982 162.441 11.0646 162.175 11.1973C161.91 11.2637 161.711 11.4628 161.512 11.5955C161.312 11.7946 161.18 12.0601 160.981 12.3919L152.685 30.6429V38.7396C152.685 39.4033 152.685 40.067 152.751 40.5979C152.817 41.1288 152.884 41.527 153.083 41.8589C153.282 42.1907 153.547 42.3898 153.946 42.5889C154.344 42.7216 154.875 42.8544 155.605 42.8544V43.5844H142.066V42.8544C142.796 42.8544 143.327 42.788 143.725 42.5889C144.123 42.4562 144.389 42.1907 144.588 41.8589C144.787 41.527 144.853 41.1288 144.92 40.5979C144.92 40.067 144.986 39.4697 144.986 38.7396V31.1738L136.558 14.3166C136.292 13.7193 135.828 13.4538 135.23 13.4538C134.301 13.4538 133.505 13.852 132.708 14.7148Z" fill="white"/>
<path d="M165.162 42.788V43.518H157.596V42.788C158.326 42.788 159.056 42.6553 159.587 42.3234C160.184 41.9916 160.516 41.6598 160.649 41.3943L173.59 10.0691H174.984L187.328 39.4697C187.461 39.8679 187.66 40.1333 187.926 40.2661C188.191 40.3988 188.39 40.4652 188.656 40.4652C189.12 40.4652 189.651 40.2661 190.182 39.9342C190.713 39.6024 191.111 39.2706 191.443 38.9387C191.443 39.6024 191.244 40.2661 190.912 40.8634C190.58 41.4607 190.116 41.9252 189.518 42.3898C188.921 42.788 188.257 43.1198 187.527 43.3853C186.797 43.6508 185.935 43.7171 185.138 43.7171C184.275 43.7171 183.479 43.5844 182.815 43.3853C182.152 43.1198 181.554 42.8544 181.09 42.3898C180.625 41.9916 180.227 41.527 179.895 40.9961C179.563 40.4652 179.298 40.0006 179.032 39.4033L176.643 33.6957H165.295L162.175 41.2616C162.109 41.4607 162.109 41.5934 162.109 41.6598C162.109 42.1243 162.441 42.3898 163.104 42.5225C163.635 42.7216 164.365 42.788 165.162 42.788ZM165.693 32.5675H176.112L170.869 20.0905L165.693 32.5675Z" fill="white"/>
<path d="M21.809 45.4428C21.809 45.4428 21.8754 45.1109 21.8754 44.5136C22.0081 41.8589 21.3444 33.8949 10.1284 27.9219C10.1284 27.9219 14.2432 41.6598 20.6144 45.4428C20.6144 45.4428 18.9552 40.0007 16.0351 36.6823C16.0351 36.6823 17.827 36.2841 20.2162 39.4034C20.2162 39.4034 22.0081 42.4562 21.809 45.4428Z" fill="white"/>
<path d="M19.7518 44.978C19.7518 44.978 8.93394 41.7261 0.438965 44.978C0.438965 44.978 10.3276 52.0129 22.0746 46.1726C22.0746 46.1726 14.7742 49.2255 10.1949 45.509L20.9464 45.6417C20.9464 45.6417 20.0836 45.2435 19.7518 44.978Z" fill="white"/>
<path d="M16.9642 32.1694L15.9023 31.2402C16.2342 31.5057 16.6324 31.8375 16.9642 32.1694Z" fill="white"/>
<path d="M68.5979 43.4517V44.2481H54.2626L54.0635 43.7171C54.0635 43.7171 55.059 43.518 56.4528 43.1198C57.8465 42.7216 56.851 37.3459 56.851 37.3459L51.4089 11.131L40.3919 36.815C40.3919 36.815 34.3525 53.1413 22.2738 55.3314C12.186 56.3932 11.2568 53.0085 11.2568 53.0085C25.8576 59.247 33.9543 38.6733 33.9543 38.6733L23.0702 12.7238L16.9644 32.1693C16.6326 31.8375 16.3007 31.5056 15.9025 31.2402C14.5752 30.1119 13.0487 29.1164 13.0487 29.1164L18.889 11.131L22.2074 0.578613L35.6135 36.1513L37.4718 31.9038C45.104 11.861 50.0152 5.68887 52.7362 3.96333C58.3774 0.180412 63.4877 4.69337 63.6868 4.89247C57.8465 1.70685 54.329 7.61351 54.329 7.61351C54.329 7.61351 59.8375 31.7047 61.4966 37.8105C63.0231 43.9162 68.5979 43.4517 68.5979 43.4517Z" fill="white"/>
<path d="M37.4717 6.21977C39.0478 6.21977 40.3255 4.94209 40.3255 3.36599C40.3255 1.78989 39.0478 0.512207 37.4717 0.512207C35.8956 0.512207 34.6179 1.78989 34.6179 3.36599C34.6179 4.94209 35.8956 6.21977 37.4717 6.21977Z" fill="white"/>
<path d="M44.579 58.4759C43.907 58.4759 43.323 58.3799 42.827 58.1879C42.339 57.9959 41.967 57.7399 41.711 57.4199C41.455 57.0999 41.327 56.7559 41.327 56.3879C41.327 56.0839 41.407 55.8519 41.567 55.6919C41.727 55.5239 41.971 55.4399 42.299 55.4399C42.299 56.1199 42.503 56.6399 42.911 56.9999C43.319 57.3519 43.891 57.5279 44.627 57.5279C45.331 57.5279 45.871 57.4119 46.247 57.1799C46.623 56.9399 46.811 56.5879 46.811 56.1239C46.811 55.8439 46.739 55.6159 46.595 55.4399C46.459 55.2559 46.223 55.0999 45.887 54.9719C45.559 54.8359 45.083 54.6999 44.459 54.5639C43.723 54.4039 43.139 54.2199 42.707 54.0119C42.275 53.7959 41.959 53.5359 41.759 53.2319C41.559 52.9279 41.459 52.5519 41.459 52.1039C41.459 51.6559 41.583 51.2639 41.831 50.9279C42.087 50.5839 42.447 50.3199 42.911 50.1359C43.375 49.9519 43.915 49.8599 44.531 49.8599C45.115 49.8599 45.635 49.9439 46.091 50.1119C46.555 50.2719 46.915 50.5039 47.171 50.8079C47.435 51.1039 47.567 51.4399 47.567 51.8159C47.567 52.0479 47.491 52.2319 47.339 52.3679C47.195 52.4959 46.967 52.5599 46.655 52.5599C46.567 51.9519 46.351 51.5079 46.007 51.2279C45.671 50.9479 45.179 50.8079 44.531 50.8079C43.907 50.8079 43.427 50.9199 43.091 51.1439C42.755 51.3599 42.587 51.6679 42.587 52.0679C42.587 52.3479 42.647 52.5799 42.767 52.7639C42.895 52.9399 43.107 53.0919 43.403 53.2199C43.707 53.3479 44.131 53.4719 44.675 53.5919C45.491 53.7679 46.131 53.9639 46.595 54.1799C47.067 54.3959 47.407 54.6599 47.615 54.9719C47.823 55.2839 47.927 55.6679 47.927 56.1239C47.927 56.8519 47.623 57.4279 47.015 57.8519C46.407 58.2679 45.595 58.4759 44.579 58.4759ZM51.0537 51.3599C50.8297 51.3599 50.6417 51.2879 50.4897 51.1439C50.3377 50.9999 50.2617 50.8199 50.2617 50.6039C50.2617 50.3879 50.3377 50.2119 50.4897 50.0759C50.6417 49.9319 50.8297 49.8599 51.0537 49.8599C51.2697 49.8599 51.4537 49.9319 51.6057 50.0759C51.7577 50.2119 51.8337 50.3879 51.8337 50.6039C51.8337 50.8199 51.7577 50.9999 51.6057 51.1439C51.4537 51.2879 51.2697 51.3599 51.0537 51.3599ZM50.5257 53.0279C50.5257 52.7639 50.6097 52.5719 50.7777 52.4519C50.9537 52.3239 51.2177 52.2599 51.5697 52.2599V57.7079C51.5697 57.9719 51.4817 58.1679 51.3057 58.2959C51.1377 58.4159 50.8777 58.4759 50.5257 58.4759V53.0279ZM56.2195 58.4759C55.6355 58.4759 55.1995 58.3159 54.9115 57.9959C54.6235 57.6679 54.4795 57.2399 54.4795 56.7119V50.6279C54.4795 50.3639 54.5635 50.1719 54.7315 50.0519C54.9075 49.9239 55.1715 49.8599 55.5235 49.8599V56.6759C55.5235 56.9879 55.5875 57.2119 55.7155 57.3479C55.8435 57.4839 56.0555 57.5519 56.3515 57.5519C56.6475 57.5519 56.9195 57.4799 57.1675 57.3359C57.2715 57.4559 57.3235 57.5959 57.3235 57.7559C57.3235 57.9479 57.2235 58.1159 57.0235 58.2599C56.8235 58.4039 56.5555 58.4759 56.2195 58.4759ZM64.533 58.2119C64.469 58.2919 64.389 58.3559 64.293 58.4039C64.197 58.4519 64.089 58.4759 63.969 58.4759C63.841 58.4759 63.729 58.4519 63.633 58.4039C63.537 58.3559 63.449 58.2679 63.369 58.1399L61.461 55.1519L60.573 55.9439V57.7199C60.573 58.2239 60.229 58.4759 59.541 58.4759V50.7239C59.541 50.1479 59.889 49.8599 60.585 49.8599L60.573 54.8759L63.477 52.2719C63.709 52.4879 63.825 52.6719 63.825 52.8239C63.825 52.9359 63.797 53.0279 63.741 53.0999C63.693 53.1639 63.597 53.2599 63.453 53.3879L62.109 54.5759L64.533 58.2119ZM73.4964 50.9639H70.5684C70.5684 50.2999 70.8804 49.9679 71.5044 49.9679H77.5404C77.5404 50.6319 77.2284 50.9639 76.6044 50.9639H74.6244V57.5399C74.6244 57.8439 74.5284 58.0759 74.3364 58.2359C74.1444 58.3959 73.8644 58.4759 73.4964 58.4759V50.9639ZM78.8039 50.7479C78.8039 50.4599 78.8919 50.2399 79.0679 50.0879C79.2439 49.9359 79.5039 49.8599 79.8479 49.8599V53.0159C79.7359 53.1439 79.6479 53.2559 79.5839 53.3519L79.6319 53.3999C79.8799 53.0639 80.1919 52.7919 80.5679 52.5839C80.9439 52.3679 81.3519 52.2599 81.7919 52.2599C82.4399 52.2599 82.9519 52.4519 83.3279 52.8359C83.7039 53.2199 83.8919 53.7159 83.8919 54.3239V57.7079C83.8919 57.9719 83.8039 58.1679 83.6279 58.2959C83.4599 58.4159 83.1999 58.4759 82.8479 58.4759V54.4319C82.8479 54.0479 82.7399 53.7439 82.5239 53.5199C82.3079 53.2959 81.9799 53.1839 81.5399 53.1839C81.2439 53.1839 80.9639 53.2479 80.6999 53.3759C80.4439 53.4959 80.2359 53.6639 80.0759 53.8799C79.9239 54.0879 79.8479 54.3159 79.8479 54.5639V57.7079C79.8479 57.9719 79.7599 58.1679 79.5839 58.2959C79.4159 58.4159 79.1559 58.4759 78.8039 58.4759V50.7479ZM89.0124 53.1839C88.5644 53.1839 88.1924 53.3199 87.8964 53.5919C87.6004 53.8559 87.4524 54.1799 87.4524 54.5639V57.7079C87.4524 57.9719 87.3644 58.1679 87.1884 58.2959C87.0204 58.4159 86.7604 58.4759 86.4084 58.4759V53.1479C86.4084 52.5559 86.7444 52.2599 87.4164 52.2599V52.9919C87.2884 53.1279 87.2004 53.2479 87.1524 53.3519L87.2004 53.3999C87.7124 52.6399 88.3524 52.2599 89.1204 52.2599C89.4084 52.2599 89.6284 52.3319 89.7804 52.4759C89.9324 52.6119 90.0084 52.7799 90.0084 52.9799C90.0084 53.1239 89.9724 53.2519 89.9004 53.3639C89.6764 53.2439 89.3804 53.1839 89.0124 53.1839ZM94.1046 58.4759C93.6166 58.4759 93.1806 58.3839 92.7966 58.1999C92.4126 58.0079 92.1126 57.7479 91.8966 57.4199C91.6806 57.0839 91.5726 56.7079 91.5726 56.2919V54.5159C91.5726 54.0919 91.6846 53.7079 91.9086 53.3639C92.1406 53.0199 92.4486 52.7519 92.8326 52.5599C93.2246 52.3599 93.6486 52.2599 94.1046 52.2599C94.5606 52.2599 94.9766 52.3559 95.3526 52.5479C95.7366 52.7399 96.0366 53.0039 96.2526 53.3399C96.4766 53.6759 96.5886 54.0559 96.5886 54.4799V55.2479C96.5886 55.3759 96.5406 55.4839 96.4446 55.5719C96.3486 55.6599 96.2326 55.7039 96.0966 55.7039H92.5926V56.2439C92.5926 56.6519 92.7206 56.9799 92.9766 57.2279C93.2406 57.4759 93.6166 57.5999 94.1046 57.5999C94.5926 57.5999 94.9646 57.4919 95.2206 57.2759C95.4766 57.0599 95.6046 56.7679 95.6046 56.3999C95.8446 56.3839 96.0446 56.4319 96.2046 56.5439C96.3726 56.6479 96.4566 56.8039 96.4566 57.0119C96.4566 57.2679 96.3446 57.5079 96.1206 57.7319C95.9046 57.9559 95.6166 58.1359 95.2566 58.2719C94.8966 58.4079 94.5126 58.4759 94.1046 58.4759ZM95.6166 54.8879V54.4799C95.6166 54.0799 95.4766 53.7559 95.1966 53.5079C94.9246 53.2519 94.5606 53.1239 94.1046 53.1239C93.6486 53.1239 93.2806 53.2519 93.0006 53.5079C92.7286 53.7559 92.5926 54.0799 92.5926 54.4799V54.8879H95.6166ZM100.75 58.4759C100.062 58.4759 99.5061 58.2919 99.0821 57.9239C98.6661 57.5559 98.4581 57.0719 98.4581 56.4719C98.4581 55.8639 98.6781 55.3759 99.1181 55.0079C99.5581 54.6319 100.138 54.4439 100.858 54.4439C101.626 54.4439 102.258 54.7159 102.754 55.2599L102.802 55.2119C102.714 55.1159 102.614 55.0159 102.502 54.9119V54.4079C102.502 53.9999 102.374 53.6839 102.118 53.4599C101.862 53.2359 101.498 53.1239 101.026 53.1239C100.186 53.1239 99.5861 53.4559 99.2261 54.1199C99.0981 54.0559 98.9901 53.9719 98.9021 53.8679C98.8221 53.7559 98.7821 53.6439 98.7821 53.5319C98.7821 53.3159 98.8901 53.1119 99.1061 52.9199C99.3221 52.7199 99.6061 52.5599 99.9581 52.4399C100.318 52.3199 100.694 52.2599 101.086 52.2599C101.846 52.2599 102.442 52.4479 102.874 52.8239C103.314 53.1999 103.534 53.7199 103.534 54.3839V57.6719C103.534 57.9519 103.454 58.1559 103.294 58.2839C103.134 58.4119 102.882 58.4759 102.538 58.4759V57.9119C102.706 57.7359 102.798 57.6319 102.814 57.5999L102.766 57.5519C102.246 58.1679 101.574 58.4759 100.75 58.4759ZM100.93 57.6479C101.426 57.6479 101.814 57.5439 102.094 57.3359C102.382 57.1279 102.526 56.8399 102.526 56.4719C102.526 56.1039 102.386 55.8119 102.106 55.5959C101.826 55.3799 101.442 55.2719 100.954 55.2719C100.498 55.2719 100.138 55.3799 99.8741 55.5959C99.6181 55.8039 99.4901 56.0959 99.4901 56.4719C99.4901 56.8479 99.6141 57.1399 99.8621 57.3479C100.118 57.5479 100.474 57.6479 100.93 57.6479ZM108.313 58.4759C107.625 58.4759 107.065 58.2879 106.633 57.9119C106.209 57.5279 105.997 57.0199 105.997 56.3879V54.3359C105.997 53.9279 106.097 53.5679 106.297 53.2559C106.497 52.9359 106.773 52.6919 107.125 52.5239C107.485 52.3479 107.897 52.2599 108.361 52.2599C108.737 52.2599 109.085 52.3399 109.405 52.4999C109.725 52.6519 110.005 52.8559 110.245 53.1119L110.281 53.0519C110.225 52.9719 110.141 52.8839 110.029 52.7879V50.6759C110.029 50.4119 110.117 50.2119 110.293 50.0759C110.469 49.9319 110.733 49.8599 111.085 49.8599V57.6239C111.085 57.8879 111.005 58.0959 110.845 58.2479C110.693 58.3999 110.445 58.4759 110.101 58.4759V57.8039C110.213 57.6599 110.289 57.5559 110.329 57.4919L110.293 57.4439C110.037 57.7639 109.753 58.0159 109.441 58.1999C109.129 58.3839 108.753 58.4759 108.313 58.4759ZM108.541 57.5519C108.965 57.5519 109.321 57.4439 109.609 57.2279C109.897 57.0039 110.041 56.7279 110.041 56.3999V54.3239C110.041 54.0039 109.905 53.7359 109.633 53.5199C109.361 53.2959 108.993 53.1839 108.529 53.1839C108.057 53.1839 107.689 53.2919 107.425 53.5079C107.169 53.7159 107.041 54.0079 107.041 54.3839V56.3399C107.041 56.7319 107.169 57.0319 107.425 57.2399C107.689 57.4479 108.061 57.5519 108.541 57.5519ZM117.775 50.7959C117.775 50.4999 117.875 50.2719 118.075 50.1119C118.275 49.9439 118.551 49.8599 118.903 49.8599L121.807 56.8319L121.579 57.3959L121.663 57.4319L124.735 49.8599C125.087 49.8599 125.363 49.9439 125.563 50.1119C125.771 50.2799 125.875 50.5119 125.875 50.8079V58.4759C125.131 58.4759 124.759 58.1679 124.759 57.5519V52.4999L125.071 51.6719L124.975 51.6479L122.299 58.1519C122.259 58.2479 122.195 58.3239 122.107 58.3799C122.019 58.4439 121.927 58.4759 121.831 58.4759C121.727 58.4759 121.631 58.4479 121.543 58.3919C121.455 58.3359 121.391 58.2559 121.351 58.1519L118.675 51.6359L118.579 51.6719L118.891 52.4879V57.5519C118.891 57.8559 118.795 58.0879 118.603 58.2479C118.419 58.3999 118.143 58.4759 117.775 58.4759V50.7959ZM130.512 58.4759C129.824 58.4759 129.268 58.2919 128.844 57.9239C128.428 57.5559 128.22 57.0719 128.22 56.4719C128.22 55.8639 128.44 55.3759 128.88 55.0079C129.32 54.6319 129.9 54.4439 130.62 54.4439C131.388 54.4439 132.02 54.7159 132.516 55.2599L132.564 55.2119C132.476 55.1159 132.376 55.0159 132.264 54.9119V54.4079C132.264 53.9999 132.136 53.6839 131.88 53.4599C131.624 53.2359 131.26 53.1239 130.788 53.1239C129.948 53.1239 129.348 53.4559 128.988 54.1199C128.86 54.0559 128.752 53.9719 128.664 53.8679C128.584 53.7559 128.544 53.6439 128.544 53.5319C128.544 53.3159 128.652 53.1119 128.868 52.9199C129.084 52.7199 129.368 52.5599 129.72 52.4399C130.08 52.3199 130.456 52.2599 130.848 52.2599C131.608 52.2599 132.204 52.4479 132.636 52.8239C133.076 53.1999 133.296 53.7199 133.296 54.3839V57.6719C133.296 57.9519 133.216 58.1559 133.056 58.2839C132.896 58.4119 132.644 58.4759 132.3 58.4759V57.9119C132.468 57.7359 132.56 57.6319 132.576 57.5999L132.528 57.5519C132.008 58.1679 131.336 58.4759 130.512 58.4759ZM130.692 57.6479C131.188 57.6479 131.576 57.5439 131.856 57.3359C132.144 57.1279 132.288 56.8399 132.288 56.4719C132.288 56.1039 132.148 55.8119 131.868 55.5959C131.588 55.3799 131.204 55.2719 130.716 55.2719C130.26 55.2719 129.9 55.3799 129.636 55.5959C129.38 55.8039 129.252 56.0959 129.252 56.4719C129.252 56.8479 129.376 57.1399 129.624 57.3479C129.88 57.5479 130.236 57.6479 130.692 57.6479ZM137.727 58.4759C137.159 58.4759 136.735 58.3159 136.455 57.9959C136.175 57.6679 136.035 57.2399 136.035 56.7119V53.2079H134.919C134.919 52.9359 134.979 52.7279 135.099 52.5839C135.219 52.4399 135.383 52.3679 135.591 52.3679H136.047V51.2279C136.047 50.9639 136.131 50.7719 136.299 50.6519C136.475 50.5239 136.735 50.4599 137.079 50.4599V52.3679H138.675C138.675 52.9279 138.423 53.2079 137.919 53.2079H137.091V56.6759C137.091 56.9959 137.147 57.2239 137.259 57.3599C137.379 57.4879 137.591 57.5519 137.895 57.5519C138.175 57.5519 138.439 57.4799 138.687 57.3359C138.791 57.4399 138.843 57.5799 138.843 57.7559C138.843 57.9479 138.743 58.1159 138.543 58.2599C138.343 58.4039 138.071 58.4759 137.727 58.4759ZM143.481 58.4759C142.993 58.4759 142.557 58.3839 142.173 58.1999C141.789 58.0079 141.489 57.7479 141.273 57.4199C141.057 57.0839 140.949 56.7079 140.949 56.2919V54.5159C140.949 54.0919 141.061 53.7079 141.285 53.3639C141.517 53.0199 141.825 52.7519 142.209 52.5599C142.601 52.3599 143.025 52.2599 143.481 52.2599C143.937 52.2599 144.353 52.3559 144.729 52.5479C145.113 52.7399 145.413 53.0039 145.629 53.3399C145.853 53.6759 145.965 54.0559 145.965 54.4799V55.2479C145.965 55.3759 145.917 55.4839 145.821 55.5719C145.725 55.6599 145.609 55.7039 145.473 55.7039H141.969V56.2439C141.969 56.6519 142.097 56.9799 142.353 57.2279C142.617 57.4759 142.993 57.5999 143.481 57.5999C143.969 57.5999 144.341 57.4919 144.597 57.2759C144.853 57.0599 144.981 56.7679 144.981 56.3999C145.221 56.3839 145.421 56.4319 145.581 56.5439C145.749 56.6479 145.833 56.8039 145.833 57.0119C145.833 57.2679 145.721 57.5079 145.497 57.7319C145.281 57.9559 144.993 58.1359 144.633 58.2719C144.273 58.4079 143.889 58.4759 143.481 58.4759ZM144.993 54.8879V54.4799C144.993 54.0799 144.853 53.7559 144.573 53.5079C144.301 53.2519 143.937 53.1239 143.481 53.1239C143.025 53.1239 142.657 53.2519 142.377 53.5079C142.105 53.7559 141.969 54.0799 141.969 54.4799V54.8879H144.993ZM150.914 53.1839C150.466 53.1839 150.094 53.3199 149.798 53.5919C149.502 53.8559 149.354 54.1799 149.354 54.5639V57.7079C149.354 57.9719 149.266 58.1679 149.09 58.2959C148.922 58.4159 148.662 58.4759 148.31 58.4759V53.1479C148.31 52.5559 148.646 52.2599 149.318 52.2599V52.9919C149.19 53.1279 149.102 53.2479 149.054 53.3519L149.102 53.3999C149.614 52.6399 150.254 52.2599 151.022 52.2599C151.31 52.2599 151.53 52.3319 151.682 52.4759C151.834 52.6119 151.91 52.7799 151.91 52.9799C151.91 53.1239 151.874 53.2519 151.802 53.3639C151.578 53.2439 151.282 53.1839 150.914 53.1839ZM154.621 51.3599C154.397 51.3599 154.209 51.2879 154.057 51.1439C153.905 50.9999 153.829 50.8199 153.829 50.6039C153.829 50.3879 153.905 50.2119 154.057 50.0759C154.209 49.9319 154.397 49.8599 154.621 49.8599C154.837 49.8599 155.021 49.9319 155.173 50.0759C155.325 50.2119 155.401 50.3879 155.401 50.6039C155.401 50.8199 155.325 50.9999 155.173 51.1439C155.021 51.2879 154.837 51.3599 154.621 51.3599ZM154.093 53.0279C154.093 52.7639 154.177 52.5719 154.345 52.4519C154.521 52.3239 154.785 52.2599 155.137 52.2599V57.7079C155.137 57.9719 155.049 58.1679 154.873 58.2959C154.705 58.4159 154.445 58.4759 154.093 58.4759V53.0279ZM160.039 58.4759C159.351 58.4759 158.795 58.2919 158.371 57.9239C157.955 57.5559 157.747 57.0719 157.747 56.4719C157.747 55.8639 157.967 55.3759 158.407 55.0079C158.847 54.6319 159.427 54.4439 160.147 54.4439C160.915 54.4439 161.547 54.7159 162.043 55.2599L162.091 55.2119C162.003 55.1159 161.903 55.0159 161.791 54.9119V54.4079C161.791 53.9999 161.663 53.6839 161.407 53.4599C161.151 53.2359 160.787 53.1239 160.315 53.1239C159.475 53.1239 158.875 53.4559 158.515 54.1199C158.387 54.0559 158.279 53.9719 158.191 53.8679C158.111 53.7559 158.071 53.6439 158.071 53.5319C158.071 53.3159 158.179 53.1119 158.395 52.9199C158.611 52.7199 158.895 52.5599 159.247 52.4399C159.607 52.3199 159.983 52.2599 160.375 52.2599C161.135 52.2599 161.731 52.4479 162.163 52.8239C162.603 53.1999 162.823 53.7199 162.823 54.3839V57.6719C162.823 57.9519 162.743 58.1559 162.583 58.2839C162.423 58.4119 162.171 58.4759 161.827 58.4759V57.9119C161.995 57.7359 162.087 57.6319 162.103 57.5999L162.055 57.5519C161.535 58.1679 160.863 58.4759 160.039 58.4759ZM160.219 57.6479C160.715 57.6479 161.103 57.5439 161.383 57.3359C161.671 57.1279 161.815 56.8399 161.815 56.4719C161.815 56.1039 161.675 55.8119 161.395 55.5959C161.115 55.3799 160.731 55.2719 160.243 55.2719C159.787 55.2719 159.427 55.3799 159.163 55.5959C158.907 55.8039 158.779 56.0959 158.779 56.4719C158.779 56.8479 158.903 57.1399 159.151 57.3479C159.407 57.5479 159.763 57.6479 160.219 57.6479ZM167.145 58.4759C166.561 58.4759 166.125 58.3159 165.837 57.9959C165.549 57.6679 165.405 57.2399 165.405 56.7119V50.6279C165.405 50.3639 165.489 50.1719 165.657 50.0519C165.833 49.9239 166.097 49.8599 166.449 49.8599V56.6759C166.449 56.9879 166.513 57.2119 166.641 57.3479C166.769 57.4839 166.981 57.5519 167.277 57.5519C167.573 57.5519 167.845 57.4799 168.093 57.3359C168.197 57.4559 168.249 57.5959 168.249 57.7559C168.249 57.9479 168.149 58.1159 167.949 58.2599C167.749 58.4039 167.481 58.4759 167.145 58.4759ZM172.463 58.4759C172.055 58.4759 171.671 58.4159 171.311 58.2959C170.951 58.1679 170.659 57.9879 170.435 57.7559C170.219 57.5239 170.111 57.2519 170.111 56.9399C170.111 56.5559 170.343 56.3479 170.807 56.3159C170.887 56.7639 171.075 57.0959 171.371 57.3119C171.675 57.5199 172.059 57.6239 172.523 57.6239C172.987 57.6239 173.347 57.5559 173.603 57.4199C173.859 57.2839 173.987 57.0759 173.987 56.7959C173.987 56.5959 173.935 56.4359 173.831 56.3159C173.727 56.1879 173.559 56.0799 173.327 55.9919C173.103 55.8959 172.779 55.8039 172.355 55.7159C171.827 55.5959 171.407 55.4679 171.095 55.3319C170.783 55.1959 170.543 55.0159 170.375 54.7919C170.215 54.5679 170.135 54.2719 170.135 53.9039C170.135 53.5919 170.231 53.3119 170.423 53.0639C170.615 52.8079 170.879 52.6119 171.215 52.4759C171.559 52.3319 171.947 52.2599 172.379 52.2599C172.779 52.2599 173.155 52.3159 173.507 52.4279C173.867 52.5399 174.155 52.6999 174.371 52.9079C174.595 53.1159 174.707 53.3559 174.707 53.6279C174.707 53.8119 174.635 53.9599 174.491 54.0719C174.347 54.1759 174.147 54.2359 173.891 54.2519C173.867 53.8999 173.723 53.6239 173.459 53.4239C173.203 53.2159 172.843 53.1119 172.379 53.1119C171.995 53.1119 171.691 53.1839 171.467 53.3279C171.243 53.4719 171.131 53.6639 171.131 53.9039C171.131 54.1599 171.235 54.3519 171.443 54.4799C171.659 54.5999 172.023 54.7159 172.535 54.8279C173.375 54.9959 173.991 55.2279 174.383 55.5239C174.783 55.8119 174.983 56.2239 174.983 56.7599C174.983 57.3039 174.763 57.7279 174.323 58.0319C173.883 58.3279 173.263 58.4759 172.463 58.4759Z" fill="white"/>
</g>
<defs>
<clipPath id="clip0_309_6638">
<rect width="190.987" height="60.9756" fill="white" transform="translate(0.438965 0.512207)"/>
</clipPath>
</defs>
</svg>
