<svg width="192" height="62" viewBox="0 0 192 62" fill="none" xmlns="http://www.w3.org/2000/svg">
<g clip-path="url(#clip0_309_7302)">
<path d="M78.4865 42.788V43.518H70.9207V42.788C71.6507 42.788 72.3807 42.6553 72.9117 42.3234C73.509 41.9916 73.8408 41.6598 73.9735 41.3943L86.9151 10.0691H88.3088L100.653 39.4697C100.786 39.8679 100.985 40.1333 101.25 40.2661C101.516 40.3988 101.715 40.4652 101.98 40.4652C102.445 40.4652 102.976 40.2661 103.507 39.9342C104.038 39.6024 104.436 39.2706 104.768 38.9387C104.768 39.6024 104.569 40.2661 104.237 40.8634C103.905 41.4607 103.44 41.9252 102.843 42.3898C102.246 42.788 101.582 43.1198 100.852 43.3853C100.122 43.6508 99.2594 43.7171 98.463 43.7171C97.6002 43.7171 96.8038 43.5844 96.1401 43.3853C95.4764 43.1198 94.8791 42.8544 94.4146 42.3898C93.95 41.9916 93.5518 41.527 93.22 40.9961C92.8881 40.4652 92.6227 40.0006 92.3572 39.4033L89.968 33.6957H78.6192L75.5 41.2616C75.4336 41.4607 75.4336 41.5934 75.4336 41.6598C75.4336 42.1243 75.7654 42.3898 76.4291 42.5225C76.9601 42.7216 77.6901 42.788 78.4865 42.788ZM79.0174 32.5675H89.3707L84.1277 20.0905L79.0174 32.5675Z" fill="white"/>
<path d="M113.528 42.788V43.518H105.962V42.788C106.692 42.788 107.422 42.6553 107.953 42.3234C108.551 41.9916 108.883 41.6598 109.015 41.3943L121.89 10.0691H123.284L135.628 39.4697C135.761 39.8679 135.96 40.1333 136.226 40.2661C136.491 40.3988 136.69 40.4652 136.956 40.4652C137.42 40.4652 137.951 40.2661 138.482 39.9342C139.013 39.6024 139.411 39.2706 139.743 38.9387C139.743 39.6024 139.544 40.2661 139.212 40.8634C138.88 41.4607 138.416 41.9252 137.819 42.3898C137.221 42.788 136.558 43.1198 135.828 43.3853C135.098 43.6508 134.235 43.7171 133.438 43.7171C132.576 43.7171 131.779 43.5844 131.115 43.3853C130.452 43.1198 129.855 42.8544 129.39 42.3898C128.925 41.9916 128.527 41.527 128.195 40.9961C127.864 40.4652 127.598 40.0006 127.333 39.4033L124.943 33.6957H113.595L110.475 41.2616C110.409 41.4607 110.409 41.5934 110.409 41.6598C110.409 42.1243 110.741 42.3898 111.404 42.5225C112.002 42.7216 112.732 42.788 113.528 42.788ZM113.993 32.5675H124.412L119.169 20.0905L113.993 32.5675Z" fill="white"/>
<path d="M132.708 14.7148C132.708 13.7193 132.907 12.9229 133.306 12.3256C133.704 11.7283 134.168 11.2637 134.699 10.9319C135.23 10.6 135.828 10.4009 136.358 10.2682C136.956 10.1355 137.42 10.0691 137.686 10.0691C139.61 10.0691 141.137 10.4673 142.331 11.3301C143.46 12.1265 144.389 13.1883 144.986 14.3829L152.021 28.3864L159.255 12.4583C159.321 12.2592 159.388 12.1265 159.388 11.9274C159.388 11.4628 159.056 11.1973 158.392 11.131C157.729 11.0646 156.799 10.9982 155.738 10.9982V10.2682H164.764V10.9982C164.1 10.9982 163.569 10.9982 163.171 10.9982C162.772 10.9982 162.441 11.0646 162.175 11.1973C161.91 11.2637 161.711 11.4628 161.512 11.5955C161.312 11.7946 161.18 12.0601 160.981 12.3919L152.685 30.6429V38.7396C152.685 39.4033 152.685 40.067 152.751 40.5979C152.817 41.1288 152.884 41.527 153.083 41.8589C153.282 42.1907 153.547 42.3898 153.946 42.5889C154.344 42.7216 154.875 42.8544 155.605 42.8544V43.5844H142.066V42.8544C142.796 42.8544 143.327 42.788 143.725 42.5889C144.123 42.4562 144.389 42.1907 144.588 41.8589C144.787 41.527 144.853 41.1288 144.92 40.5979C144.92 40.067 144.986 39.4697 144.986 38.7396V31.1738L136.558 14.3166C136.292 13.7193 135.828 13.4538 135.23 13.4538C134.301 13.4538 133.505 13.852 132.708 14.7148Z" fill="white"/>
<path d="M165.162 42.788V43.518H157.596V42.788C158.326 42.788 159.056 42.6553 159.587 42.3234C160.184 41.9916 160.516 41.6598 160.649 41.3943L173.59 10.0691H174.984L187.328 39.4697C187.461 39.8679 187.66 40.1333 187.926 40.2661C188.191 40.3988 188.39 40.4652 188.656 40.4652C189.12 40.4652 189.651 40.2661 190.182 39.9342C190.713 39.6024 191.111 39.2706 191.443 38.9387C191.443 39.6024 191.244 40.2661 190.912 40.8634C190.58 41.4607 190.116 41.9252 189.518 42.3898C188.921 42.788 188.257 43.1198 187.527 43.3853C186.797 43.6508 185.935 43.7171 185.138 43.7171C184.275 43.7171 183.479 43.5844 182.815 43.3853C182.152 43.1198 181.554 42.8544 181.09 42.3898C180.625 41.9916 180.227 41.527 179.895 40.9961C179.563 40.4652 179.298 40.0006 179.032 39.4033L176.643 33.6957H165.295L162.175 41.2616C162.109 41.4607 162.109 41.5934 162.109 41.6598C162.109 42.1243 162.441 42.3898 163.104 42.5225C163.635 42.7216 164.365 42.788 165.162 42.788ZM165.693 32.5675H176.112L170.869 20.0905L165.693 32.5675Z" fill="white"/>
<path d="M21.8092 45.4428C21.8092 45.4428 21.8756 45.1109 21.8756 44.5136C22.0084 41.8589 21.3447 33.8949 10.1287 27.9219C10.1287 27.9219 14.2434 41.6598 20.6146 45.4428C20.6146 45.4428 18.9555 40.0007 16.0353 36.6823C16.0353 36.6823 17.8272 36.2841 20.2164 39.4034C20.2164 39.4034 22.0084 42.4562 21.8092 45.4428Z" fill="white"/>
<path d="M19.7518 44.978C19.7518 44.978 8.93394 41.7261 0.438965 44.978C0.438965 44.978 10.3276 52.0129 22.0746 46.1726C22.0746 46.1726 14.7742 49.2255 10.1949 45.509L20.9464 45.6417C20.9464 45.6417 20.0836 45.2435 19.7518 44.978Z" fill="white"/>
<path d="M16.9642 32.1694L15.9023 31.2402C16.2342 31.5057 16.6324 31.8375 16.9642 32.1694Z" fill="white"/>
<path d="M68.5979 43.4517V44.2481H54.2626L54.0635 43.7171C54.0635 43.7171 55.059 43.518 56.4528 43.1198C57.8465 42.7216 56.851 37.3459 56.851 37.3459L51.4089 11.131L40.3919 36.815C40.3919 36.815 34.3525 53.1413 22.2738 55.3314C12.186 56.3932 11.2568 53.0085 11.2568 53.0085C25.8576 59.247 33.9543 38.6733 33.9543 38.6733L23.0702 12.7238L16.9644 32.1693C16.6326 31.8375 16.3007 31.5056 15.9025 31.2402C14.5752 30.1119 13.0487 29.1164 13.0487 29.1164L18.889 11.131L22.2074 0.578613L35.6135 36.1513L37.4718 31.9038C45.104 11.861 50.0152 5.68887 52.7362 3.96333C58.3774 0.180412 63.4877 4.69337 63.6868 4.89247C57.8465 1.70685 54.329 7.61351 54.329 7.61351C54.329 7.61351 59.8375 31.7047 61.4966 37.8105C63.0231 43.9162 68.5979 43.4517 68.5979 43.4517Z" fill="white"/>
<path d="M37.4717 6.21977C39.0478 6.21977 40.3255 4.94209 40.3255 3.36599C40.3255 1.78989 39.0478 0.512207 37.4717 0.512207C35.8956 0.512207 34.6179 1.78989 34.6179 3.36599C34.6179 4.94209 35.8956 6.21977 37.4717 6.21977Z" fill="white"/>
<path d="M41.579 50.4959C41.579 50.3439 41.631 50.2199 41.735 50.1239C41.847 50.0199 41.987 49.9679 42.155 49.9679H45.467C46.243 49.9679 46.859 50.1959 47.315 50.6519C47.779 51.0999 48.011 51.6999 48.011 52.4519C48.011 53.3959 47.599 54.0639 46.775 54.4559V54.4919C47.135 54.6439 47.411 54.8759 47.603 55.1879C47.795 55.4919 47.891 55.8639 47.891 56.3039V57.5399C47.891 57.8439 47.795 58.0759 47.603 58.2359C47.411 58.3959 47.131 58.4759 46.763 58.4759V56.3759C46.763 55.9039 46.655 55.5479 46.439 55.3079C46.231 55.0599 45.919 54.9359 45.503 54.9359H42.695V57.5399C42.695 57.8439 42.599 58.0759 42.407 58.2359C42.223 58.3959 41.947 58.4759 41.579 58.4759V50.4959ZM45.431 53.9639C45.871 53.9639 46.219 53.8279 46.475 53.5559C46.739 53.2839 46.871 52.9119 46.871 52.4399C46.871 51.9599 46.747 51.5919 46.499 51.3359C46.251 51.0799 45.895 50.9519 45.431 50.9519H42.695V53.9639H45.431ZM52.2185 58.4759C51.5305 58.4759 50.9745 58.2919 50.5505 57.9239C50.1345 57.5559 49.9265 57.0719 49.9265 56.4719C49.9265 55.8639 50.1465 55.3759 50.5865 55.0079C51.0265 54.6319 51.6065 54.4439 52.3265 54.4439C53.0945 54.4439 53.7265 54.7159 54.2225 55.2599L54.2705 55.2119C54.1825 55.1159 54.0825 55.0159 53.9705 54.9119V54.4079C53.9705 53.9999 53.8425 53.6839 53.5865 53.4599C53.3305 53.2359 52.9665 53.1239 52.4945 53.1239C51.6545 53.1239 51.0545 53.4559 50.6945 54.1199C50.5665 54.0559 50.4585 53.9719 50.3705 53.8679C50.2905 53.7559 50.2505 53.6439 50.2505 53.5319C50.2505 53.3159 50.3585 53.1119 50.5745 52.9199C50.7905 52.7199 51.0745 52.5599 51.4265 52.4399C51.7865 52.3199 52.1625 52.2599 52.5545 52.2599C53.3145 52.2599 53.9105 52.4479 54.3425 52.8239C54.7825 53.1999 55.0025 53.7199 55.0025 54.3839V57.6719C55.0025 57.9519 54.9225 58.1559 54.7625 58.2839C54.6025 58.4119 54.3505 58.4759 54.0065 58.4759V57.9119C54.1745 57.7359 54.2665 57.6319 54.2825 57.5999L54.2345 57.5519C53.7145 58.1679 53.0425 58.4759 52.2185 58.4759ZM52.3985 57.6479C52.8945 57.6479 53.2825 57.5439 53.5625 57.3359C53.8505 57.1279 53.9945 56.8399 53.9945 56.4719C53.9945 56.1039 53.8545 55.8119 53.5745 55.5959C53.2945 55.3799 52.9105 55.2719 52.4225 55.2719C51.9665 55.2719 51.6065 55.3799 51.3425 55.5959C51.0865 55.8039 50.9585 56.0959 50.9585 56.4719C50.9585 56.8479 51.0825 57.1399 51.3305 57.3479C51.5865 57.5479 51.9425 57.6479 52.3985 57.6479ZM59.2539 58.4759C58.9979 58.4759 58.7859 58.4199 58.6179 58.3079C58.4499 58.1879 58.3339 58.0239 58.2699 57.8159L56.7459 52.3559C56.8579 52.2919 57.0099 52.2599 57.2019 52.2599C57.3779 52.2599 57.5259 52.2999 57.6459 52.3799C57.7659 52.4599 57.8419 52.5759 57.8739 52.7279L58.8819 56.7119L58.7619 57.2279L58.8219 57.2519L60.1299 52.6079C60.1619 52.5039 60.2219 52.4199 60.3099 52.3559C60.3979 52.2919 60.5059 52.2599 60.6339 52.2599C60.7619 52.2599 60.8699 52.2919 60.9579 52.3559C61.0459 52.4199 61.1059 52.5039 61.1379 52.6079L62.2779 56.7599L62.1339 57.2759L62.2059 57.2999L63.3819 52.7279C63.4139 52.5759 63.4899 52.4599 63.6099 52.3799C63.7299 52.2999 63.8779 52.2599 64.0539 52.2599C64.2459 52.2599 64.3979 52.2919 64.5099 52.3559L62.9859 57.8159C62.9299 58.0239 62.8099 58.1879 62.6259 58.3079C62.4419 58.4199 62.2219 58.4759 61.9659 58.4759L60.5259 53.2919L60.4779 53.3039L60.5979 53.7479L59.2539 58.4759ZM70.9073 50.7959C70.9073 50.4999 71.0073 50.2719 71.2073 50.1119C71.4073 49.9439 71.6833 49.8599 72.0353 49.8599L74.9393 56.8319L74.7113 57.3959L74.7953 57.4319L77.8673 49.8599C78.2193 49.8599 78.4953 49.9439 78.6953 50.1119C78.9033 50.2799 79.0073 50.5119 79.0073 50.8079V58.4759C78.2633 58.4759 77.8913 58.1679 77.8913 57.5519V52.4999L78.2033 51.6719L78.1073 51.6479L75.4313 58.1519C75.3913 58.2479 75.3273 58.3239 75.2393 58.3799C75.1513 58.4439 75.0593 58.4759 74.9633 58.4759C74.8593 58.4759 74.7633 58.4479 74.6753 58.3919C74.5873 58.3359 74.5233 58.2559 74.4833 58.1519L71.8073 51.6359L71.7113 51.6719L72.0233 52.4879V57.5519C72.0233 57.8559 71.9273 58.0879 71.7353 58.2479C71.5513 58.3999 71.2753 58.4759 70.9073 58.4759V50.7959ZM83.6445 58.4759C82.9565 58.4759 82.4005 58.2919 81.9765 57.9239C81.5605 57.5559 81.3525 57.0719 81.3525 56.4719C81.3525 55.8639 81.5725 55.3759 82.0125 55.0079C82.4525 54.6319 83.0325 54.4439 83.7525 54.4439C84.5205 54.4439 85.1525 54.7159 85.6485 55.2599L85.6965 55.2119C85.6085 55.1159 85.5085 55.0159 85.3965 54.9119V54.4079C85.3965 53.9999 85.2685 53.6839 85.0125 53.4599C84.7565 53.2359 84.3925 53.1239 83.9205 53.1239C83.0805 53.1239 82.4805 53.4559 82.1205 54.1199C81.9925 54.0559 81.8845 53.9719 81.7965 53.8679C81.7165 53.7559 81.6765 53.6439 81.6765 53.5319C81.6765 53.3159 81.7845 53.1119 82.0005 52.9199C82.2165 52.7199 82.5005 52.5599 82.8525 52.4399C83.2125 52.3199 83.5885 52.2599 83.9805 52.2599C84.7405 52.2599 85.3365 52.4479 85.7685 52.8239C86.2085 53.1999 86.4285 53.7199 86.4285 54.3839V57.6719C86.4285 57.9519 86.3485 58.1559 86.1885 58.2839C86.0285 58.4119 85.7765 58.4759 85.4325 58.4759V57.9119C85.6005 57.7359 85.6925 57.6319 85.7085 57.5999L85.6605 57.5519C85.1405 58.1679 84.4685 58.4759 83.6445 58.4759ZM83.8245 57.6479C84.3205 57.6479 84.7085 57.5439 84.9885 57.3359C85.2765 57.1279 85.4205 56.8399 85.4205 56.4719C85.4205 56.1039 85.2805 55.8119 85.0005 55.5959C84.7205 55.3799 84.3365 55.2719 83.8485 55.2719C83.3925 55.2719 83.0325 55.3799 82.7685 55.5959C82.5125 55.8039 82.3845 56.0959 82.3845 56.4719C82.3845 56.8479 82.5085 57.1399 82.7565 57.3479C83.0125 57.5479 83.3685 57.6479 83.8245 57.6479ZM90.8598 58.4759C90.2918 58.4759 89.8678 58.3159 89.5878 57.9959C89.3078 57.6679 89.1678 57.2399 89.1678 56.7119V53.2079H88.0518C88.0518 52.9359 88.1118 52.7279 88.2318 52.5839C88.3518 52.4399 88.5158 52.3679 88.7238 52.3679H89.1798V51.2279C89.1798 50.9639 89.2638 50.7719 89.4318 50.6519C89.6078 50.5239 89.8678 50.4599 90.2118 50.4599V52.3679H91.8078C91.8078 52.9279 91.5558 53.2079 91.0518 53.2079H90.2238V56.6759C90.2238 56.9959 90.2798 57.2239 90.3918 57.3599C90.5118 57.4879 90.7238 57.5519 91.0278 57.5519C91.3078 57.5519 91.5718 57.4799 91.8198 57.3359C91.9238 57.4399 91.9758 57.5799 91.9758 57.7559C91.9758 57.9479 91.8758 58.1159 91.6758 58.2599C91.4758 58.4039 91.2038 58.4759 90.8598 58.4759ZM96.6134 58.4759C96.1254 58.4759 95.6894 58.3839 95.3054 58.1999C94.9214 58.0079 94.6214 57.7479 94.4054 57.4199C94.1894 57.0839 94.0814 56.7079 94.0814 56.2919V54.5159C94.0814 54.0919 94.1934 53.7079 94.4174 53.3639C94.6494 53.0199 94.9574 52.7519 95.3414 52.5599C95.7334 52.3599 96.1574 52.2599 96.6134 52.2599C97.0694 52.2599 97.4854 52.3559 97.8614 52.5479C98.2454 52.7399 98.5454 53.0039 98.7614 53.3399C98.9854 53.6759 99.0974 54.0559 99.0974 54.4799V55.2479C99.0974 55.3759 99.0494 55.4839 98.9534 55.5719C98.8574 55.6599 98.7414 55.7039 98.6054 55.7039H95.1014V56.2439C95.1014 56.6519 95.2294 56.9799 95.4854 57.2279C95.7494 57.4759 96.1254 57.5999 96.6134 57.5999C97.1014 57.5999 97.4734 57.4919 97.7294 57.2759C97.9854 57.0599 98.1134 56.7679 98.1134 56.3999C98.3534 56.3839 98.5534 56.4319 98.7134 56.5439C98.8814 56.6479 98.9654 56.8039 98.9654 57.0119C98.9654 57.2679 98.8534 57.5079 98.6294 57.7319C98.4134 57.9559 98.1254 58.1359 97.7654 58.2719C97.4054 58.4079 97.0214 58.4759 96.6134 58.4759ZM98.1254 54.8879V54.4799C98.1254 54.0799 97.9854 53.7559 97.7054 53.5079C97.4334 53.2519 97.0694 53.1239 96.6134 53.1239C96.1574 53.1239 95.7894 53.2519 95.5094 53.5079C95.2374 53.7559 95.1014 54.0799 95.1014 54.4799V54.8879H98.1254ZM104.047 53.1839C103.599 53.1839 103.227 53.3199 102.931 53.5919C102.635 53.8559 102.487 54.1799 102.487 54.5639V57.7079C102.487 57.9719 102.399 58.1679 102.223 58.2959C102.055 58.4159 101.795 58.4759 101.443 58.4759V53.1479C101.443 52.5559 101.779 52.2599 102.451 52.2599V52.9919C102.323 53.1279 102.235 53.2479 102.187 53.3519L102.235 53.3999C102.747 52.6399 103.387 52.2599 104.155 52.2599C104.443 52.2599 104.663 52.3319 104.815 52.4759C104.967 52.6119 105.043 52.7799 105.043 52.9799C105.043 53.1239 105.007 53.2519 104.935 53.3639C104.711 53.2439 104.415 53.1839 104.047 53.1839ZM107.753 51.3599C107.529 51.3599 107.341 51.2879 107.189 51.1439C107.037 50.9999 106.961 50.8199 106.961 50.6039C106.961 50.3879 107.037 50.2119 107.189 50.0759C107.341 49.9319 107.529 49.8599 107.753 49.8599C107.969 49.8599 108.153 49.9319 108.305 50.0759C108.457 50.2119 108.533 50.3879 108.533 50.6039C108.533 50.8199 108.457 50.9999 108.305 51.1439C108.153 51.2879 107.969 51.3599 107.753 51.3599ZM107.225 53.0279C107.225 52.7639 107.309 52.5719 107.477 52.4519C107.653 52.3239 107.917 52.2599 108.269 52.2599V57.7079C108.269 57.9719 108.181 58.1679 108.005 58.2959C107.837 58.4159 107.577 58.4759 107.225 58.4759V53.0279ZM113.171 58.4759C112.483 58.4759 111.927 58.2919 111.503 57.9239C111.087 57.5559 110.879 57.0719 110.879 56.4719C110.879 55.8639 111.099 55.3759 111.539 55.0079C111.979 54.6319 112.559 54.4439 113.279 54.4439C114.047 54.4439 114.679 54.7159 115.175 55.2599L115.223 55.2119C115.135 55.1159 115.035 55.0159 114.923 54.9119V54.4079C114.923 53.9999 114.795 53.6839 114.539 53.4599C114.283 53.2359 113.919 53.1239 113.447 53.1239C112.607 53.1239 112.007 53.4559 111.647 54.1199C111.519 54.0559 111.411 53.9719 111.323 53.8679C111.243 53.7559 111.203 53.6439 111.203 53.5319C111.203 53.3159 111.311 53.1119 111.527 52.9199C111.743 52.7199 112.027 52.5599 112.379 52.4399C112.739 52.3199 113.115 52.2599 113.507 52.2599C114.267 52.2599 114.863 52.4479 115.295 52.8239C115.735 53.1999 115.955 53.7199 115.955 54.3839V57.6719C115.955 57.9519 115.875 58.1559 115.715 58.2839C115.555 58.4119 115.303 58.4759 114.959 58.4759V57.9119C115.127 57.7359 115.219 57.6319 115.235 57.5999L115.187 57.5519C114.667 58.1679 113.995 58.4759 113.171 58.4759ZM113.351 57.6479C113.847 57.6479 114.235 57.5439 114.515 57.3359C114.803 57.1279 114.947 56.8399 114.947 56.4719C114.947 56.1039 114.807 55.8119 114.527 55.5959C114.247 55.3799 113.863 55.2719 113.375 55.2719C112.919 55.2719 112.559 55.3799 112.295 55.5959C112.039 55.8039 111.911 56.0959 111.911 56.4719C111.911 56.8479 112.035 57.1399 112.283 57.3479C112.539 57.5479 112.895 57.6479 113.351 57.6479ZM120.277 58.4759C119.693 58.4759 119.257 58.3159 118.969 57.9959C118.681 57.6679 118.537 57.2399 118.537 56.7119V50.6279C118.537 50.3639 118.621 50.1719 118.789 50.0519C118.965 49.9239 119.229 49.8599 119.581 49.8599V56.6759C119.581 56.9879 119.645 57.2119 119.773 57.3479C119.901 57.4839 120.113 57.5519 120.409 57.5519C120.705 57.5519 120.977 57.4799 121.225 57.3359C121.329 57.4559 121.381 57.5959 121.381 57.7559C121.381 57.9479 121.281 58.1159 121.081 58.2599C120.881 58.4039 120.613 58.4759 120.277 58.4759ZM125.595 58.4759C125.187 58.4759 124.803 58.4159 124.443 58.2959C124.083 58.1679 123.791 57.9879 123.567 57.7559C123.351 57.5239 123.243 57.2519 123.243 56.9399C123.243 56.5559 123.475 56.3479 123.939 56.3159C124.019 56.7639 124.207 57.0959 124.503 57.3119C124.807 57.5199 125.191 57.6239 125.655 57.6239C126.119 57.6239 126.479 57.5559 126.735 57.4199C126.991 57.2839 127.119 57.0759 127.119 56.7959C127.119 56.5959 127.067 56.4359 126.963 56.3159C126.859 56.1879 126.691 56.0799 126.459 55.9919C126.235 55.8959 125.911 55.8039 125.487 55.7159C124.959 55.5959 124.539 55.4679 124.227 55.3319C123.915 55.1959 123.675 55.0159 123.507 54.7919C123.347 54.5679 123.267 54.2719 123.267 53.9039C123.267 53.5919 123.363 53.3119 123.555 53.0639C123.747 52.8079 124.011 52.6119 124.347 52.4759C124.691 52.3319 125.079 52.2599 125.511 52.2599C125.911 52.2599 126.287 52.3159 126.639 52.4279C126.999 52.5399 127.287 52.6999 127.503 52.9079C127.727 53.1159 127.839 53.3559 127.839 53.6279C127.839 53.8119 127.767 53.9599 127.623 54.0719C127.479 54.1759 127.279 54.2359 127.023 54.2519C126.999 53.8999 126.855 53.6239 126.591 53.4239C126.335 53.2159 125.975 53.1119 125.511 53.1119C125.127 53.1119 124.823 53.1839 124.599 53.3279C124.375 53.4719 124.263 53.6639 124.263 53.9039C124.263 54.1599 124.367 54.3519 124.575 54.4799C124.791 54.5999 125.155 54.7159 125.667 54.8279C126.507 54.9959 127.123 55.2279 127.515 55.5239C127.915 55.8119 128.115 56.2239 128.115 56.7599C128.115 57.3039 127.895 57.7279 127.455 58.0319C127.015 58.3279 126.395 58.4759 125.595 58.4759Z" fill="white"/>
</g>
<defs>
<clipPath id="clip0_309_7302">
<rect width="190.987" height="60.9756" fill="white" transform="translate(0.438965 0.512207)"/>
</clipPath>
</defs>
</svg>
