<svg width="90" height="90" viewBox="0 0 90 90" fill="none" xmlns="http://www.w3.org/2000/svg">
<path d="M87.4645 63.0611C87.4645 63.9383 87.4733 64.8154 87.4645 65.6926C87.4558 66.4997 87.061 66.8681 86.2277 66.8769C85.2628 66.8856 84.868 66.5523 84.833 65.7102C84.833 65.5961 84.833 65.4733 84.8242 65.3593C84.7979 64.7365 84.4294 64.3418 83.8066 64.3242C82.7979 64.3067 81.7891 64.3067 80.7803 64.3242C80.1575 64.333 79.7803 64.719 79.7452 65.3418C79.7365 65.5172 79.7365 65.6926 79.7452 65.8681C79.7803 66.4383 80.1487 66.8067 80.7277 66.8505C80.8768 66.8593 81.0172 66.8505 81.1663 66.8593C81.8856 66.8856 82.2803 67.2628 82.2891 67.9821C82.2979 68.8856 82.2891 69.7891 82.2979 70.7014C82.3066 71.6049 82.6751 72.0435 83.5698 71.9997C84.5435 71.947 84.9119 72.6049 84.9119 73.3856C84.9119 74.947 84.9119 76.5084 84.9119 78.0698C84.9119 79.4821 85.061 79.64 86.4733 79.7277C87.0172 79.7628 87.4119 80.0962 87.4382 80.6751C87.4821 81.754 87.4821 82.833 87.447 83.9119C87.4295 84.4997 86.9996 84.833 86.3768 84.833C84.6838 84.8418 82.9909 84.833 81.2979 84.8418C81.0698 84.8418 80.833 84.8593 80.6049 84.9032C80.0786 85.0084 79.7979 85.3418 79.7628 85.8769C79.754 86.0347 79.7628 86.2014 79.754 86.3593C79.7189 86.9909 79.2979 87.4383 78.6663 87.447C77.6575 87.4646 76.6487 87.4733 75.64 87.447C74.8944 87.4207 74.5435 86.9119 74.5786 85.947C74.5961 85.2628 75.0259 84.8418 75.7101 84.8155C75.8856 84.8067 76.061 84.8242 76.2365 84.8067C76.7189 84.7716 77.0786 84.4207 77.1137 83.9295C77.1312 83.7277 77.1137 83.5172 77.1312 83.3154C77.1838 82.6663 77.5961 82.2804 78.2452 82.2628C78.333 82.2628 78.4207 82.2628 78.5084 82.2628C79.2803 82.2365 79.6575 81.8856 79.7277 81.1225C79.7365 80.9909 79.7365 80.8593 79.7365 80.7277C79.7628 80.1225 80.1312 79.754 80.7277 79.719C80.947 79.7102 81.1663 79.7102 81.3768 79.6663C81.9382 79.5611 82.2452 79.254 82.2628 78.6839C82.2891 77.6488 82.2979 76.6137 82.2628 75.5698C82.2452 74.8856 81.7365 74.5435 80.8856 74.5698C80.1926 74.5961 79.7628 74.9821 79.754 75.64C79.7452 76.5786 79.754 77.5084 79.7452 78.447C79.7365 79.2979 79.3242 79.7277 78.4909 79.7365C77.5786 79.7453 77.14 79.3505 77.1049 78.4821C77.0698 77.3505 76.2979 76.8418 75.2277 77.2453C74.8505 77.3856 74.6487 77.6839 74.5961 78.0698C74.5698 78.254 74.5786 78.447 74.5698 78.64C74.5698 78.833 74.5347 79.0172 74.447 79.1926C74.1926 79.6576 73.4821 79.8769 72.8066 79.7014C72.2979 79.5698 72.0259 79.2102 72.0084 78.64C72.0084 78.5347 72.0172 78.4383 71.9996 78.333C71.9821 78.1751 71.9645 78.0084 71.9207 77.8593C71.754 77.2979 71.2102 77.0786 70.2979 77.2014C69.833 77.2628 69.5084 77.64 69.4821 78.14C69.4733 78.3154 69.4821 78.4909 69.4645 78.6663C69.3944 79.333 68.9733 79.7804 68.3066 79.719C67.2189 79.6312 66.8505 80.2804 66.8593 81.1751C66.868 81.947 66.447 82.2891 65.561 82.2804C64.7102 82.2804 64.3066 81.9295 64.2979 81.1751C64.2891 80.8067 64.2891 80.4383 64.0523 80.1312C63.754 79.7365 63.0786 79.5874 62.4821 79.7804C61.9996 79.9295 61.754 80.2628 61.7803 80.8593C61.833 82.1488 61.0172 82.4207 59.9645 82.254C59.5259 82.1839 59.1926 81.7804 59.1487 81.333C59.1312 81.1488 59.14 80.9558 59.1312 80.7628C59.0961 80.14 58.7277 79.754 58.1049 79.7453C57.1663 79.7277 56.2365 79.7453 55.2979 79.7365C54.4031 79.7365 53.9733 79.3067 53.9733 78.4207C53.9733 77.5523 54.3856 77.0874 55.254 77.1137C56.447 77.1576 56.6926 76.3769 56.5523 75.4909C56.4645 74.9119 56.0786 74.6049 55.4996 74.5698C55.4119 74.5611 55.3242 74.5698 55.2365 74.5698C54.6137 74.5611 54.2365 74.3505 54.0698 73.9119C53.8505 73.3242 53.9909 72.6137 54.3856 72.2453C54.6137 72.0347 54.8768 72.0084 55.1575 72.0084C56.8242 72.0084 58.4909 72.0084 60.1487 72.0084C60.3768 72.0084 60.6137 71.9909 60.8417 71.947C61.4207 71.8242 61.6575 71.5347 61.6838 70.9383C61.6926 70.7891 61.6838 70.6488 61.6926 70.4997C61.754 69.8418 62.1312 69.4646 62.7891 69.4032C62.9645 69.3856 63.14 69.4032 63.3154 69.3856C63.8154 69.3505 64.14 69.0961 64.2365 68.6049C64.4382 67.5611 64.1137 66.8593 62.9295 66.8681C62.1049 66.8681 61.7014 66.4646 61.6926 65.6663C61.6838 63.9032 61.6838 62.1312 61.6926 60.3681C61.6926 59.754 61.9558 59.333 62.447 59.2102C63.0084 59.0698 63.5786 59.026 64.0435 59.5084C64.2716 59.754 64.3242 60.0347 64.3242 60.3505C64.333 61.3593 64.6312 61.6576 65.6224 61.6839C66.4645 61.7014 66.8505 62.0874 66.8768 62.9207C66.9031 63.947 67.2452 64.2891 68.2628 64.2979C69.0961 64.2979 69.9294 64.2979 70.7628 64.2979C71.2277 64.2979 71.6575 64.2014 71.868 63.7453C72.0961 63.2453 72.1137 62.719 71.8242 62.2277C71.6312 61.9032 71.3154 61.7804 70.9294 61.7716C69.7189 61.7453 69.4119 61.4119 69.4119 60.2102C69.4119 58.6049 69.4119 56.9997 69.4119 55.3944C69.4119 54.3505 69.9207 53.8856 70.947 53.9909C71.6312 54.0611 72.0172 54.4733 72.0435 55.1751C72.0435 55.2628 72.0435 55.3505 72.0435 55.4383C72.0523 56.1663 72.447 56.5874 73.1751 56.5962C74.0084 56.6137 74.8417 56.5962 75.6751 56.5962C76.8856 56.5962 77.1663 56.8768 77.2014 58.0786C77.2189 58.6663 77.5172 59.0347 78.0523 59.1225C78.1663 59.14 78.2891 59.14 78.4031 59.14C79.3768 59.1576 79.7277 59.5172 79.7452 60.5084C79.7628 61.333 80.1049 61.6839 80.9207 61.6839C81.8417 61.6926 82.7628 61.6926 83.6838 61.6839C84.4645 61.6751 84.8417 61.333 84.8154 60.5611C84.7803 59.4383 85.4382 58.9909 86.561 59.1663C87.1049 59.254 87.447 59.6839 87.4558 60.2979C87.4645 61.2277 87.4558 62.1488 87.4645 63.0611ZM74.5698 70.7628C74.5698 69.9032 74.5698 69.0435 74.5698 68.1839C74.5698 67.2891 74.2101 66.8944 73.2979 66.8856C71.5786 66.8681 69.8593 66.8681 68.1312 66.8856C67.2716 66.8944 66.8856 67.2628 66.8768 68.1225C66.8593 69.8856 66.8593 71.6488 66.8768 73.4119C66.8856 74.1663 67.3154 74.5611 68.0698 74.5611C69.833 74.5698 71.5961 74.5698 73.368 74.5611C74.2014 74.5611 74.561 74.1926 74.561 73.3418C74.5698 72.4909 74.5698 71.6312 74.5698 70.7628ZM77.1137 63.0172C77.1137 62.1049 76.7979 61.7891 75.8768 61.7804C74.9558 61.7804 74.5786 62.14 74.5873 63.0172C74.5873 63.8944 74.9996 64.3067 75.868 64.3067C76.7716 64.2979 77.1137 63.9383 77.1137 63.0172ZM77.2014 70.7277C77.2014 71.6225 77.5698 72.0084 78.4294 72.0084C79.2803 72.0084 79.7277 71.5698 79.7277 70.719C79.7277 69.9646 79.3242 69.447 78.4382 69.4821C77.5172 69.526 77.2014 69.8067 77.2014 70.7277Z" fill="#666666"/>
<path d="M59.2368 45.131C59.2368 47.7889 59.2368 50.4468 59.2368 53.1047C59.2368 55.6486 57.5438 58.0258 55.1403 58.8679C54.4298 59.1135 53.7105 59.2451 52.9561 59.2363C50.4737 59.2275 47.9912 59.2802 45.5087 59.2188C43.0877 59.1574 40.6579 59.1837 38.2368 59.1749C37.4386 59.1749 36.6316 59.2889 35.8421 59.1047C33.614 58.596 32.0701 57.2889 31.2368 55.1574C30.9561 54.4381 30.8596 53.6924 30.8596 52.9293C30.8596 47.631 30.8596 42.324 30.8596 37.0258C30.8596 33.6398 33.6403 30.8503 37.0087 30.8503C42.3684 30.8503 47.728 30.8503 53.0877 30.8503C56.4649 30.8503 59.2368 33.6398 59.2368 37.0258C59.2368 39.7275 59.2368 42.4293 59.2368 45.131ZM44.8772 55.3767C45.9737 55.3767 47.0701 55.4117 48.1579 55.3679C49.1403 55.3328 50.1315 55.3065 51.1052 55.0521C52.8947 54.5872 54.1315 53.5082 54.8245 51.7889C55.2719 50.6837 55.3245 49.5082 55.3508 48.3503C55.4035 46.1924 55.3947 44.0258 55.3508 41.8679C55.3333 40.9117 55.2894 39.9468 55.0438 39.0082C54.5877 37.2363 53.5701 35.9731 51.8421 35.2889C50.7017 34.8328 49.5087 34.7626 48.3245 34.7363C46.2631 34.6924 44.2105 34.7012 42.1491 34.7275C41.0614 34.7363 39.9649 34.7802 38.8947 35.0609C37.3333 35.4819 36.1579 36.3854 35.4298 37.8503C34.8333 39.0521 34.7368 40.3503 34.7105 41.6398C34.6666 43.8591 34.6579 46.0784 34.7193 48.2977C34.7544 49.6749 34.807 51.0696 35.4737 52.3416C36.3596 54.0258 37.7982 54.9117 39.6228 55.21C41.3684 55.4819 43.1316 55.3679 44.8772 55.3767Z" fill="#666666"/>
<path d="M7.78957 59.2279C7.78957 57.956 7.78957 56.6841 7.78957 55.4209C7.78957 54.4034 7.47378 54.07 6.46501 54.0788C5.95624 54.0788 5.52641 53.9472 5.31589 53.4472C5.09659 52.9121 5.07027 52.3595 5.42992 51.8595C5.65799 51.5437 6.00887 51.4472 6.39483 51.4384C7.46501 51.4209 7.7808 51.0963 7.7808 50.0437C7.7808 49.1841 7.7808 48.3244 7.7808 47.456C7.78957 46.7191 8.14045 46.3683 8.88606 46.3419C9.25448 46.3332 9.6229 46.3244 9.92992 46.0876C10.4562 45.6753 10.3685 45.0963 10.2808 44.5525C10.2019 44.0876 9.8422 43.842 9.37729 43.7893C9.15799 43.763 8.93869 43.763 8.71939 43.7455C8.20185 43.7104 7.81589 43.3507 7.7808 42.8244C7.76325 42.6051 7.76325 42.3858 7.7808 42.1665C7.80711 41.6139 8.21062 41.1928 8.75448 41.1841C9.80711 41.1665 10.8597 41.1665 11.9036 41.1841C12.5352 41.1928 12.9299 41.6577 12.9475 42.3507C12.965 43.2279 12.9562 44.1051 12.9562 44.9823C12.9562 46.7016 12.9562 48.4297 12.9562 50.149C12.9562 51.07 12.6141 51.4121 11.7019 51.456C10.5878 51.5086 10.1317 52.1402 10.4211 53.2191C10.5615 53.7455 10.851 53.9648 11.3948 53.9823C11.5878 53.9823 11.772 53.9911 11.965 53.9823C12.5001 53.9472 12.8159 53.6314 12.8597 53.0963C12.8685 52.9472 12.8685 52.8069 12.8685 52.6577C12.8861 52.1314 13.079 51.7191 13.5966 51.5174C14.1492 51.3069 14.8773 51.4472 15.2282 51.8244C15.4562 52.07 15.5001 52.3595 15.5001 52.6753C15.5001 54.4121 15.5001 56.149 15.5001 57.8858C15.5001 58.7981 15.8597 59.1577 16.7808 59.1577C20.1668 59.1577 23.5527 59.1577 26.9387 59.1577C27.9826 59.1577 28.351 59.5262 28.3685 60.5788C28.3861 61.3595 28.7194 61.6841 29.5001 61.7016C30.5527 61.7191 30.9036 62.0788 30.9212 63.1402C30.9299 63.9033 31.3159 64.2893 32.0878 64.3069C32.1755 64.3069 32.2633 64.3069 32.351 64.3069C33.1054 64.3244 33.465 64.6841 33.4738 65.456C33.4826 66.4034 33.4826 67.3507 33.4738 68.3069C33.4738 68.9911 33.1054 69.4472 32.4299 69.4735C31.3948 69.5174 30.3597 69.5174 29.3247 69.4735C28.6668 69.4472 28.3071 68.9911 28.2983 68.2805C28.2808 67.4209 28.2896 66.5612 28.2896 65.6928C28.2896 64.6139 28.0001 64.3332 26.9036 64.3332C26.0703 64.3332 25.2369 64.3332 24.4036 64.3332C23.5615 64.3332 23.2019 63.9735 23.1843 63.1402C23.1843 62.9911 23.1755 62.8507 23.158 62.7016C23.0527 62.0788 22.7106 61.7805 22.079 61.7805C19.7282 61.7718 17.3773 61.7805 15.0264 61.7805C13.8597 61.7805 12.6931 61.7805 11.5264 61.7805C10.7808 61.7805 10.4387 62.0963 10.351 62.8507C10.3334 63.0086 10.3422 63.1753 10.3247 63.3332C10.3071 63.4735 10.2896 63.6314 10.2369 63.7542C10.0089 64.2542 9.32466 64.4735 8.57904 64.3069C8.07027 64.1928 7.77203 63.8244 7.77203 63.263C7.78957 61.9121 7.78957 60.57 7.78957 59.2279Z" fill="#666666"/>
<path d="M66.8769 7.78057C66.8769 9.07882 66.8769 10.3771 66.8769 11.6753C66.8769 12.5876 66.5173 12.956 65.6138 12.9648C64.6401 12.9823 64.3419 13.2806 64.3331 14.2543C64.3243 15.149 63.9471 15.5174 63.0436 15.5174C62.1313 15.5174 61.719 15.1227 61.7015 14.2279C61.684 13.1227 60.8243 12.5788 59.8068 13.0437C59.5173 13.1753 59.298 13.3946 59.2454 13.7279C59.2103 13.956 59.184 14.1929 59.1752 14.4209C59.1489 15.1139 58.7804 15.4999 58.0787 15.5086C57.184 15.5262 56.298 15.5086 55.4033 15.5174C54.3945 15.5174 54.0962 15.8157 54.0699 16.8069C54.0524 17.6665 53.7015 18.0262 52.8506 18.0613C52.6927 18.07 52.5261 18.0876 52.3769 18.1139C51.798 18.2192 51.5348 18.5174 51.5348 19.0964C51.5261 19.9297 51.5348 20.763 51.5261 21.5964C51.5261 21.8595 51.4997 22.1227 51.4559 22.3771C51.3594 22.8683 51.0173 23.1929 50.5173 23.2016C48.5875 23.2192 46.6664 23.2192 44.7366 23.2016C44.3068 23.2016 43.9383 22.8771 43.8068 22.456C43.7454 22.2543 43.7454 22.0525 43.7454 21.8507C43.7454 19.3069 43.7454 16.7718 43.7454 14.2279C43.7454 13.2718 44.1489 12.8683 45.105 12.8683C46.8419 12.8595 48.5787 12.8683 50.3155 12.8683C51.0085 12.8683 51.3945 12.5437 51.4471 11.9209C51.5348 10.9648 51.2629 10.4736 50.4997 10.3858C49.5699 10.2718 48.6313 10.3595 47.7015 10.342C46.7015 10.3332 46.3155 9.97356 46.3068 8.98233C46.2892 8.14899 46.298 7.31566 46.3068 6.48233C46.3155 6.01741 46.3945 5.54373 46.8857 5.34198C47.3945 5.13145 47.9471 5.11391 48.4559 5.36829C48.7541 5.51741 48.9208 5.79812 48.9383 6.15776C48.9471 6.31566 48.9383 6.48233 48.9471 6.64022C48.9734 7.32443 49.3857 7.75426 50.0787 7.76303C51.0173 7.78057 51.9471 7.76303 52.8857 7.7718C53.684 7.7718 54.0962 8.18408 54.105 8.9911C54.1138 9.91215 54.105 10.8332 54.1138 11.7543C54.1226 12.5262 54.4647 12.8595 55.2454 12.8683C56.3419 12.8771 56.6401 12.5788 56.6401 11.4648C56.6401 10.6051 56.6313 9.74548 56.6401 8.87706C56.6489 8.15777 57.0348 7.78057 57.7629 7.7718C57.912 7.7718 58.0524 7.7718 58.2015 7.7718C58.798 7.79812 59.1752 8.16654 59.2015 8.76303C59.219 9.11391 59.2015 9.47356 59.3769 9.78934C59.6313 10.263 60.298 10.456 60.9822 10.2806C61.4822 10.149 61.719 9.81566 61.7454 9.24548C61.7541 9.04373 61.7541 8.8332 61.798 8.64022C61.9208 8.08759 62.2892 7.79812 62.8506 7.7718C64.0787 7.72794 64.3506 7.43847 64.3594 6.2104C64.3594 5.40338 64.3594 4.60513 64.3594 3.79812C64.3682 2.96478 64.7717 2.59636 65.6752 2.60513C66.5348 2.60513 66.9208 2.98233 66.9296 3.81566C66.8857 5.14899 66.8769 6.46478 66.8769 7.78057ZM47.6138 20.5964C48.5085 20.5964 48.8857 20.2367 48.8857 19.3771C48.8857 18.5086 48.4559 18.07 47.605 18.0788C46.7541 18.0876 46.3506 18.4823 46.3506 19.3332C46.3594 20.2718 46.684 20.5964 47.6138 20.5964Z" fill="#666666"/>
<path d="M47.6134 61.6926C49.2888 61.6926 50.9731 61.6926 52.6485 61.6926C53.6836 61.6926 54.0695 62.0873 54.0695 63.1312C54.0695 63.9908 54.0608 64.8505 54.0695 65.7189C54.0783 66.4645 54.4292 66.8329 55.1573 66.8593C56.0959 66.8856 56.5257 66.561 56.5871 65.7715C56.5959 65.6224 56.5871 65.4821 56.5959 65.3329C56.6046 65.2189 56.6046 65.0961 56.6397 64.9908C56.8152 64.4294 57.4116 64.1926 58.3064 64.3242C58.7801 64.3943 59.1397 64.7803 59.1485 65.2979C59.166 66.3505 59.166 67.4031 59.1485 68.4558C59.1397 69.0698 58.666 69.4908 57.9731 69.4996C57.052 69.5172 56.131 69.4996 55.2099 69.5084C54.4029 69.5084 54.0257 69.8505 54.0608 70.6487C54.1134 71.754 53.4116 72.1926 52.3502 72.0347C51.7801 71.947 51.4292 71.5084 51.4204 70.8856C51.4117 69.9821 51.4204 69.0786 51.4116 68.1663C51.4116 67.3329 51.0695 66.9733 50.245 66.9031C50.1748 66.8944 50.0959 66.8943 50.0257 66.8943C49.2099 66.868 48.8766 66.5259 48.8678 65.6926C48.8678 65.5435 48.8678 65.4031 48.8503 65.254C48.7713 64.7189 48.3766 64.3505 47.8415 64.3417C46.8327 64.3329 45.8239 64.3242 44.8152 64.3417C44.1485 64.3505 43.8064 64.7189 43.7888 65.3943C43.7888 65.5259 43.7888 65.6575 43.7888 65.7891C43.8064 66.4645 44.166 66.8505 44.8415 66.8593C45.7625 66.8768 46.6836 66.8593 47.6046 66.868C48.4994 66.868 48.8766 67.2365 48.8853 68.0961C48.8941 69.0435 48.5081 69.4821 47.6134 69.4908C45.8941 69.4996 44.166 69.4908 42.4467 69.4996C41.5345 69.4996 41.1836 69.8505 41.1836 70.7715C41.1836 72.4908 41.1836 74.2189 41.1836 75.9382C41.1836 76.754 40.7713 77.2365 39.9555 77.1926C39.0169 77.14 38.5783 77.6575 38.6222 78.5435C38.6573 79.3242 38.1924 79.7803 37.4029 79.7452C36.5608 79.7101 35.9994 80.1312 36.0783 81.0522C36.1222 81.5435 35.938 82.0084 35.4292 82.1926C34.8941 82.3856 34.3327 82.4207 33.8327 82.061C33.5432 81.8505 33.4467 81.5259 33.4467 81.1751C33.4467 80.254 33.4467 79.3329 33.4467 78.4119C33.4467 77.5698 33.0871 77.1926 32.2538 77.2101C30.8415 77.2365 30.7187 76.1312 30.9994 75.1663C31.131 74.7189 31.5432 74.561 32.0169 74.561C33.7538 74.5698 35.4906 74.561 37.2274 74.561C38.3853 74.561 38.9467 73.6926 38.4643 72.6224C38.2801 72.2014 37.9204 72.0347 37.4731 72.0347C36.5695 72.0347 35.666 72.0347 34.7538 72.0347C33.8503 72.0347 33.4467 71.64 33.4467 70.7715C33.438 69.8329 33.8327 69.4119 34.7538 69.4031C35.6573 69.3943 36.5608 69.4031 37.4731 69.3943C38.1748 69.3856 38.5169 69.0522 38.552 68.3505C38.5608 68.1751 38.5783 67.9996 38.6046 67.8242C38.7099 67.1751 39.0608 66.868 39.7362 66.8417C40.9029 66.7979 41.166 66.5259 41.166 65.3593C41.166 64.5698 41.166 63.7803 41.166 62.9908C41.166 62.0786 41.5432 61.6838 42.4731 61.675C44.1924 61.6926 45.9029 61.6926 47.6134 61.6926Z" fill="#666666"/>
<path d="M69.3945 48.9125C68.105 48.9125 66.8243 48.9038 65.5349 48.9125C65.0612 48.9125 64.6226 48.8073 64.4296 48.3599C64.2103 47.8599 64.2015 47.2985 64.4735 46.7985C64.6314 46.5003 64.9208 46.3511 65.2717 46.3424C65.491 46.3336 65.7103 46.3336 65.9296 46.2985C66.5524 46.1845 66.8507 45.8511 66.8594 45.2196C66.8682 44.281 66.8594 43.3511 66.8682 42.4125C66.877 41.5704 67.2629 41.1845 68.105 41.1845C69.0086 41.1845 69.9121 41.1845 70.8243 41.1845C71.6489 41.1845 72.0436 41.5967 72.0524 42.4301C72.0524 43.3248 72.0524 44.2108 72.0524 45.1055C72.0612 45.9213 72.4735 46.3336 73.298 46.3424C74.1401 46.3511 74.57 45.9301 74.5787 45.088C74.5787 43.395 74.5787 41.702 74.5787 40.009C74.5787 38.9476 74.8945 38.6406 75.9647 38.6318C77.6577 38.6318 79.3507 38.6318 81.0436 38.6318C81.9647 38.6318 82.2893 38.9564 82.3068 39.8599C82.3156 40.7985 82.7015 41.1757 83.6489 41.1757C84.5086 41.1757 85.3682 41.1757 86.2366 41.1757C87.07 41.1757 87.4647 41.5967 87.4735 42.4739C87.4735 43.3511 87.1314 43.7196 86.2893 43.7459C86.0963 43.7546 85.9121 43.7722 85.7278 43.8073C85.2191 43.9038 84.9384 44.2283 84.9296 44.7459C84.9208 45.6406 84.9296 46.5266 84.9208 47.4213C84.9121 48.6055 84.377 49.0617 83.2015 48.895C82.6489 48.816 82.3068 48.4301 82.298 47.8336C82.2805 46.9125 82.298 45.9915 82.2893 45.0704C82.2893 44.1669 81.9208 43.781 81.0349 43.7459C80.0086 43.702 79.798 43.4915 79.7366 42.4739C79.6664 41.3862 78.798 40.8599 77.7893 41.3073C77.4384 41.4564 77.2278 41.7196 77.2191 42.1143C77.2103 43.1932 77.2103 44.2722 77.2191 45.3599C77.2278 45.8248 77.4822 46.1231 77.9296 46.2459C78.1664 46.316 78.4121 46.3336 78.6664 46.3424C79.3594 46.3599 79.7366 46.7459 79.7629 47.4389C79.7717 47.5704 79.7629 47.702 79.7629 47.8336C79.7805 48.4125 80.1664 48.816 80.7366 48.8775C80.9121 48.895 81.0875 48.8862 81.2629 48.8862C81.8507 48.9038 82.2805 49.281 82.298 49.8599C82.3243 50.9213 82.3156 51.9915 82.298 53.0617C82.2893 53.5967 81.8945 53.9827 81.3594 54.0529C81.1577 54.0792 80.9471 54.0617 80.7454 54.0704C80.1752 54.0967 79.8243 54.4301 79.7717 54.9915C79.7629 55.1231 79.7542 55.2546 79.7629 55.3862C79.7893 55.9038 79.605 56.3424 79.1138 56.5178C78.605 56.702 78.0524 56.7459 77.5612 56.395C77.2279 56.1494 77.1226 55.7985 77.1226 55.395C77.1314 54.4915 77.1226 53.588 77.1226 52.6757C77.1226 51.9038 76.8068 51.5529 76.0349 51.4739C75.8857 51.4564 75.7454 51.4652 75.5963 51.4564C74.9998 51.4301 74.6226 51.0617 74.5787 50.4652C74.57 50.3511 74.5787 50.2283 74.57 50.1143C74.5524 49.2985 74.1664 48.9125 73.3419 48.9125C72.0261 48.9038 70.7103 48.9125 69.3945 48.9125Z" fill="#666666"/>
<path d="M11.6399 2.62231C13.6574 2.62231 15.6662 2.62231 17.6837 2.62231C19.4644 2.62231 20.6574 3.73635 20.6662 5.52582C20.6925 9.61354 20.6925 13.7013 20.6662 17.789C20.6574 19.5521 19.4644 20.6749 17.71 20.6749C13.6662 20.6837 9.62231 20.6837 5.57845 20.6749C3.78021 20.6749 2.63109 19.4995 2.62231 17.7013C2.62231 13.6749 2.62231 9.63986 2.62231 5.61354C2.62231 3.78021 3.77144 2.63109 5.596 2.62231C7.61354 2.62231 9.63109 2.62231 11.6399 2.62231ZM5.26267 11.6749C5.26267 13.1486 5.25389 14.6223 5.26267 16.096C5.27144 17.2363 6.05214 18.0346 7.19249 18.0346C10.1399 18.0434 13.096 18.0434 16.0434 18.0346C17.2627 18.0258 18.0434 17.2363 18.0434 16.0171C18.0521 13.1223 18.0521 10.2363 18.0434 7.34161C18.0434 5.99951 17.289 5.25389 15.9469 5.25389C13.0697 5.26267 10.1925 5.26267 7.3153 5.26267C6.00828 5.26267 5.26267 6.01705 5.26267 7.34161C5.25389 8.78898 5.26267 10.2276 5.26267 11.6749Z" fill="#666666"/>
<path d="M78.491 2.62231C80.5173 2.62231 82.5524 2.62231 84.5788 2.62231C86.2717 2.62231 87.4559 3.78898 87.4647 5.48196C87.4735 9.58723 87.4735 13.6837 87.4647 17.789C87.4647 19.4557 86.3156 20.6574 84.6402 20.6662C80.5086 20.6925 76.377 20.6925 72.2454 20.6662C70.5788 20.6574 69.4296 19.4907 69.4209 17.7802C69.3945 13.6662 69.3945 9.54337 69.4209 5.42933C69.4296 3.75389 70.6489 2.62231 72.3156 2.62231C74.3682 2.62231 76.4296 2.62231 78.491 2.62231ZM84.8244 11.6925C84.8244 10.2013 84.8331 8.71881 84.8244 7.22758C84.8156 6.05214 84.0524 5.27144 82.877 5.27144C79.9121 5.26267 76.9559 5.26267 73.991 5.27144C72.8244 5.27144 72.0524 6.06091 72.0437 7.23635C72.0349 10.1837 72.0349 13.1311 72.0437 16.0785C72.0437 17.2364 72.8419 18.0434 73.9998 18.0434C76.9472 18.0521 79.8945 18.0521 82.8419 18.0434C84.0349 18.0434 84.8156 17.2539 84.8244 16.0697C84.8331 14.6048 84.8244 13.1486 84.8244 11.6925Z" fill="#666666"/>
<path d="M11.6311 87.465C9.64863 87.465 7.6574 87.465 5.67495 87.465C3.74512 87.465 2.62231 86.3422 2.62231 84.4211C2.62231 80.4387 2.62231 76.4474 2.62231 72.465C2.62231 70.5439 3.74512 69.4124 5.67495 69.4124C9.6574 69.4124 13.6486 69.4124 17.6311 69.4124C19.517 69.4124 20.6749 70.5527 20.6749 72.4387C20.6837 76.4387 20.6837 80.4387 20.6749 84.4387C20.6662 86.3334 19.517 87.465 17.6311 87.465C15.6311 87.465 13.6311 87.465 11.6311 87.465ZM11.6135 84.8246C13.1048 84.8246 14.5872 84.8334 16.0785 84.8246C17.2539 84.8159 18.0434 84.0439 18.0434 82.8773C18.0521 79.9474 18.0521 77.0088 18.0434 74.079C18.0434 72.8246 17.2627 72.0527 16.0171 72.0439C13.096 72.0352 10.1749 72.0352 7.26267 72.0439C6.04337 72.0439 5.27144 72.8246 5.26267 74.0527C5.25389 76.9825 5.25389 79.9211 5.26267 82.851C5.26267 84.0615 6.02582 84.8159 7.23635 84.8246C8.69249 84.8246 10.1486 84.8246 11.6135 84.8246Z" fill="#666666"/>
<path d="M78.4563 30.9213C79.2897 30.9213 80.123 30.9301 80.9563 30.9213C81.9037 30.9038 82.2809 30.5266 82.2809 29.5792C82.2809 28.702 82.2809 27.8248 82.2809 26.9476C82.2897 26.2283 82.6493 25.8161 83.2984 25.7634C84.2984 25.6845 84.7633 25.9827 84.8862 26.7897C84.9125 26.974 84.9125 27.1669 84.9212 27.3599C84.9563 27.9213 85.3072 28.2722 85.8686 28.3073C85.9388 28.3161 86.0177 28.3161 86.0879 28.3073C87.4739 28.2634 87.6493 29.3775 87.3686 30.2547C87.2283 30.702 86.8423 30.895 86.3862 30.9301C86.1844 30.9476 85.9739 30.9301 85.7721 30.9564C85.2809 31.0178 84.9563 31.3687 84.9212 31.8599C84.9037 32.0792 84.9125 32.2985 84.9212 32.5178C84.9476 33.0441 85.3072 33.4125 85.8335 33.4564C86.0353 33.474 86.2458 33.4652 86.4476 33.4652C86.6932 33.4652 86.8949 33.5617 87.0791 33.7283C87.4563 34.0704 87.5967 34.7985 87.3862 35.3599C87.1932 35.8862 86.7721 36.0704 86.2546 36.0968C86.0967 36.1055 85.93 36.0968 85.7721 36.1143C85.2633 36.1669 84.9476 36.4915 84.9212 37.0003C84.9125 37.1582 84.9212 37.3248 84.9037 37.4827C84.8686 37.9389 84.7283 38.3599 84.2546 38.5354C83.7458 38.7283 83.2195 38.7459 82.737 38.4389C82.4125 38.2283 82.2633 37.9038 82.2721 37.5003C82.2809 36.5792 82.2809 35.6582 82.2721 34.7371C82.2633 33.8599 81.8862 33.4827 81.009 33.4827C80.1318 33.474 79.2546 33.474 78.3774 33.4827C77.5528 33.4915 77.2107 33.8424 77.1932 34.6582C77.1669 35.7371 76.7984 36.0968 75.7195 36.0968C74.0879 36.0968 72.4476 36.0968 70.816 36.0968C69.6493 36.0968 69.0704 35.2283 69.509 34.1406C69.6756 33.7283 69.9739 33.474 70.4388 33.4652C70.509 33.4652 70.5879 33.4652 70.6581 33.4652C71.7809 33.4564 72.3335 32.6055 71.8862 31.5529C71.737 31.1933 71.4563 30.9652 71.0528 30.9389C70.9651 30.9301 70.8774 30.9301 70.7897 30.9301C69.7546 30.9213 69.2984 30.4038 69.4125 29.3775C69.4826 28.7459 69.8511 28.3775 70.4914 28.3073C70.5967 28.2985 70.6932 28.2985 70.7984 28.2985C71.6054 28.281 71.9739 27.9301 72.0177 27.1318C72.0791 25.9827 72.3248 25.7459 73.4826 25.7459C74.316 25.7459 75.1493 25.7547 75.9826 25.7459C76.7458 25.7371 77.0967 25.3775 77.123 24.6143C77.1318 24.395 77.1318 24.1757 77.1844 23.9652C77.3072 23.4915 77.6493 23.2108 78.1318 23.202C79.1932 23.1933 80.2633 23.1845 81.3335 23.202C81.9037 23.2108 82.2721 23.6055 82.3072 24.1757C82.316 24.3687 82.316 24.5529 82.3072 24.7459C82.2809 25.3424 81.9212 25.7196 81.3247 25.7634C81.123 25.781 80.9125 25.7722 80.7107 25.8073C80.0616 25.9126 79.7721 26.2547 79.7633 26.9038C79.737 28.0354 79.3862 28.3775 78.2458 28.3775C77.3949 28.3775 76.5528 28.3775 75.7019 28.3775C75.0353 28.3862 74.6669 28.7283 74.6055 29.3775C74.5265 30.2108 74.7984 30.702 75.4476 30.8424C75.6405 30.8862 75.8511 30.9038 76.0528 30.9038C76.8511 30.9213 77.6493 30.9213 78.4563 30.9213Z" fill="#666666"/>
<path d="M64.3067 33.5522C64.3067 33.0873 64.3155 32.6136 64.3067 32.1487C64.2892 31.3417 63.8769 30.947 63.0787 30.9382C62.0874 30.9294 61.719 30.5522 61.6927 29.5522C61.6752 28.7189 61.3681 28.3943 60.5085 28.3943C59.1927 28.4031 58.9734 27.4557 59.2103 26.4733C59.3155 26.0347 59.6839 25.8242 60.1313 25.7715C60.3331 25.7452 60.5436 25.7715 60.7453 25.754C61.3243 25.7014 61.6752 25.3329 61.6927 24.754C61.7015 24.5785 61.7015 24.4031 61.6927 24.2277C61.6664 23.6399 61.3243 23.2803 60.7366 23.2364C59.2892 23.1224 59.1488 22.9645 59.1488 21.5084C59.1488 20.7628 59.1401 20.0171 59.1488 19.2715C59.1576 18.4382 59.5787 18.0435 60.4559 18.0435C61.3067 18.0435 61.7629 18.4557 61.7804 19.2628C61.7892 19.5084 61.7453 19.7628 61.8594 19.9996C62.0699 20.4294 62.4208 20.5961 62.8857 20.5961C63.9734 20.6049 64.3067 20.9382 64.3331 21.9996C64.3506 22.7978 64.7453 23.1926 65.5611 23.2014C66.7103 23.2189 67.2804 24.1399 66.7892 25.1926C66.6401 25.5171 66.3769 25.7189 66.0173 25.7628C65.8857 25.7803 65.7541 25.7715 65.6225 25.7803C64.3945 25.8066 64.1489 26.6136 64.4208 27.6663C64.526 28.0785 64.8681 28.2628 65.2804 28.2978C65.4734 28.3154 65.6576 28.2978 65.8506 28.3154C66.4734 28.3768 66.8769 28.7891 66.8769 29.4119C66.8857 31.2628 66.8857 33.1224 66.8769 34.9733C66.8769 35.6838 66.3945 36.0961 65.605 36.1049C64.7892 36.1049 64.3243 35.6926 64.3155 34.9557C64.3067 34.4821 64.3067 34.0171 64.3067 33.5522Z" fill="#666666"/>
<path d="M23.2456 43.728C24.5175 43.728 25.7895 43.728 27.0614 43.728C27.9561 43.728 28.386 44.1578 28.3947 45.035C28.3947 45.921 27.9737 46.3595 27.0877 46.3683C26.1403 46.3771 25.7895 46.7192 25.7807 47.6666C25.7719 48.5438 25.7807 49.421 25.7807 50.2981C25.7719 51.0964 25.4298 51.4473 24.6404 51.4736C24.5965 51.4736 24.5526 51.4736 24.5088 51.4736C23.5965 51.5087 23.2456 51.8683 23.2368 52.7718C23.2193 53.6929 22.8333 54.0788 21.9211 54.0788C21.0351 54.0788 20.5789 53.6666 20.614 52.7631C20.6404 51.9648 20.2193 51.4736 19.3333 51.4736C18.4386 51.4736 17.5526 51.4736 16.6579 51.4736C15.8684 51.4648 15.5088 51.1052 15.5 50.3157C15.5 50.2718 15.5 50.228 15.5 50.1841C15.5 49.2543 15.8421 48.9122 16.7544 48.9034C17.614 48.9034 18.4737 48.9034 19.3421 48.9034C20.4298 48.8946 21.0263 47.842 20.4825 46.8859C20.2807 46.5174 19.9386 46.3771 19.5263 46.3771C19.2193 46.3771 18.9123 46.3946 18.6228 46.2455C18.1228 45.9824 17.9035 45.3157 18.0702 44.5788C18.193 44.0788 18.5877 43.7455 19.1579 43.7455C20.5263 43.7192 21.886 43.728 23.2456 43.728Z" fill="#666666"/>
<path d="M16.8241 36.1056C15.9469 36.1056 15.0697 36.1056 14.2013 36.1056C13.7188 36.1056 13.2802 35.9828 13.0521 35.5266C12.789 35.0003 12.7977 34.4477 13.1048 33.9301C13.3065 33.5968 13.6311 33.4652 14.0346 33.4565C15.1925 33.4389 15.4644 33.1582 15.4995 32.0003C15.517 31.2986 15.8855 30.9301 16.5872 30.9126C16.7802 30.9126 16.9644 30.9038 17.1574 30.9214C17.6486 30.9652 18.017 31.3336 18.0609 31.8249C18.0784 32.0442 18.0697 32.2635 18.1048 32.4828C18.21 33.1494 18.5609 33.4565 19.2363 33.4565C20.9907 33.4652 22.7363 33.4565 24.4907 33.4565C25.4381 33.4565 25.789 33.7898 25.789 34.6933C25.7977 35.6758 25.4118 36.0793 24.482 36.0968C23.5521 36.1143 23.2539 36.4038 23.2451 37.3336C23.2363 38.2547 22.8416 38.6407 21.9381 38.6494C21.0521 38.6494 20.6311 38.2372 20.6135 37.3336C20.596 36.3775 20.3065 36.0968 19.3328 36.0968C18.4907 36.1056 17.6574 36.1056 16.8241 36.1056Z" fill="#666666"/>
<path d="M25.8067 25.7543C26.2891 25.7543 26.7716 25.7631 27.254 25.7543C27.9295 25.7368 28.2891 25.3596 28.3067 24.6753C28.3154 24.456 28.3067 24.2368 28.3593 24.0262C28.4733 23.5175 28.833 23.228 29.3505 23.2104C29.5435 23.2017 29.7277 23.2017 29.9207 23.2104C30.4821 23.2368 30.8768 23.5964 30.9383 24.1578C30.9558 24.2894 30.947 24.421 30.947 24.5525C30.9558 25.3859 31.3154 25.7806 32.1488 25.7543C33.5523 25.7104 33.6663 26.7368 33.4119 27.6929C33.2716 28.2192 32.7716 28.3859 32.2628 28.3946C31.3593 28.4034 30.4558 28.3946 29.5523 28.4034C28.7453 28.4034 28.4119 28.7455 28.4032 29.5525C28.3944 30.4297 28.4032 31.3069 28.4032 32.1753C28.3944 33.5964 27.3067 33.6841 26.333 33.3859C25.9119 33.2543 25.7716 32.8245 25.7716 32.3859C25.7716 31.4648 25.7716 30.5438 25.7716 29.6315C25.7716 28.7543 25.4295 28.421 24.5523 28.4122C23.4032 28.3946 22.7716 27.3157 23.3418 26.3069C23.5435 25.9473 23.8856 25.7894 24.2891 25.7806C24.7891 25.7543 25.2979 25.7631 25.8067 25.7543C25.8067 25.7631 25.8067 25.7631 25.8067 25.7543Z" fill="#666666"/>
<path d="M39.8943 5.2456C40.8153 5.2456 41.7276 5.23683 42.6487 5.2456C43.368 5.25437 43.7539 5.57893 43.789 6.28946C43.8329 7.26314 43.8329 8.2456 43.789 9.21928C43.7539 10.0263 43.3504 10.3596 42.5434 10.3596C40.7978 10.3596 39.0434 10.3596 37.2978 10.3596C36.4206 10.3596 36.0346 9.98244 36.0259 9.11402C36.0171 8.21051 36.0171 7.307 36.0259 6.40349C36.0346 5.64033 36.4206 5.2456 37.1838 5.2456C38.0785 5.23683 38.982 5.2456 39.8943 5.2456Z" fill="#666666"/>
<path d="M2.62231 61.7453C2.62231 60.447 2.62231 59.1488 2.62231 57.8505C2.62231 56.9821 3.00828 56.6137 3.88547 56.6049C4.85038 56.5961 5.24512 56.947 5.25389 57.8417C5.26267 59.5786 5.25389 61.3154 5.25389 63.0523C5.25389 63.947 5.60477 64.2979 6.49951 64.3066C7.63986 64.3242 8.21881 65.333 7.67495 66.3505C7.50828 66.6663 7.23635 66.8681 6.86793 66.8681C5.78898 66.8768 4.71003 66.8856 3.63109 66.8681C2.99074 66.8505 2.63109 66.4207 2.62231 65.7277C2.62231 64.4031 2.62231 63.0698 2.62231 61.7453Z" fill="#666666"/>
<path d="M12.9472 23.2102C13.4472 23.2102 13.9384 23.2014 14.4384 23.2102C15.0963 23.219 15.4822 23.6049 15.5173 24.2716C15.5173 24.3418 15.5173 24.4207 15.5173 24.4909C15.5261 25.3856 15.8682 25.7453 16.7542 25.7541C17.7454 25.7716 18.07 26.0874 18.0612 27.0698C18.0612 27.9821 17.6577 28.3681 16.7103 28.3856C15.8594 28.3944 15.4735 28.7365 15.5261 29.5786C15.5963 30.7716 14.6051 31.1312 13.6401 30.8593C13.1226 30.7102 12.8858 30.3067 12.877 29.6576C12.8682 28.7541 12.877 27.8505 12.8682 26.947C12.8682 26.1839 12.6138 25.9032 11.8507 25.7979C11.7805 25.7891 11.7015 25.7716 11.6314 25.7804C10.3331 25.8505 10.1752 24.833 10.3858 23.9295C10.491 23.4821 10.8594 23.219 11.3156 23.2102C11.8682 23.2014 12.4121 23.2102 12.9472 23.2102Z" fill="#666666"/>
<path d="M41.2014 82.3247C41.2014 82.7809 41.2014 83.2282 41.2014 83.6844C41.1926 84.4826 40.8505 84.8335 40.061 84.8511C39.8768 84.8598 39.6838 84.8686 39.4996 84.9125C38.9733 85.0265 38.6926 85.3511 38.6575 85.8861C38.6487 86.044 38.6575 86.2107 38.6487 86.3686C38.6136 87.0002 38.2014 87.4475 37.5698 87.4651C36.561 87.4914 35.561 87.4914 34.5522 87.4651C33.8943 87.4475 33.4908 87.0002 33.4821 86.3335C33.4821 86.0177 33.4294 85.6844 33.6136 85.3949C33.8856 84.9739 34.2715 84.8247 34.7715 84.8335C35.7277 84.8511 36.0171 84.544 36.0259 83.5791C36.0435 82.6844 36.4207 82.3072 37.3066 82.2896C38.2277 82.2721 38.5435 81.9739 38.5785 81.0704C38.6224 79.6668 39.5698 79.5791 40.6049 79.8335C41.0084 79.9388 41.2101 80.316 41.2101 80.7546C41.1926 81.2721 41.1926 81.7984 41.2014 82.3247Z" fill="#666666"/>
<path d="M28.3861 11.6838C28.3861 12.5259 28.3861 13.3768 28.3861 14.2189C28.3861 14.7101 28.2721 15.1838 27.7808 15.3944C27.2545 15.6224 26.6931 15.6312 26.1844 15.3242C25.9037 15.1575 25.7808 14.868 25.7633 14.5522C25.7458 14.3505 25.7633 14.14 25.7458 13.9382C25.7019 13.3593 25.3247 13.0084 24.7545 12.9821C23.3949 12.9207 23.2019 12.7189 23.2019 11.368C23.2019 10.5522 23.1931 9.73646 23.2019 8.92067C23.2107 8.20137 23.5966 7.8154 24.3159 7.80663C25.237 7.79786 26.1493 7.80663 27.0703 7.80663C27.9563 7.80663 28.3686 8.21014 28.3773 9.11365C28.3949 9.95576 28.3861 10.8154 28.3861 11.6838Z" fill="#666666"/>
<path d="M65.5967 54.0698C64.7107 54.0698 63.816 54.0786 62.93 54.0698C62.1668 54.0611 61.7282 53.6488 61.7107 52.8856C61.6932 51.9558 61.6844 51.0172 61.7107 50.0874C61.7282 49.2365 62.2019 48.8769 63.1756 48.8944C63.9475 48.912 64.3247 49.3067 64.3335 50.1137C64.3511 51.1225 64.6668 51.4383 65.6756 51.4383C66.5353 51.4383 67.3949 51.4295 68.2546 51.4383C69.0703 51.447 69.4914 51.9032 69.4914 52.7541C69.4914 53.6049 69.0704 54.0611 68.2633 54.0698C67.3774 54.0698 66.4826 54.0698 65.5967 54.0698Z" fill="#666666"/>
<path d="M53.9909 21.8946C53.9909 21.0174 53.9821 20.1402 53.9909 19.263C53.9996 18.7367 54.1926 18.3244 54.7102 18.1226C55.254 17.9033 55.9909 18.0437 56.3417 18.4209C56.561 18.6489 56.6224 18.9209 56.6224 19.2191C56.6137 20.1226 56.6137 21.0261 56.6224 21.9296C56.6224 22.7981 57.0084 23.184 57.8768 23.2016C59.0084 23.2191 59.5874 24.184 59.0786 25.2103C58.9032 25.5612 58.6137 25.7717 58.2014 25.7717C57.1488 25.7805 56.0961 25.7805 55.0523 25.7717C54.5172 25.763 54.1488 25.4384 54.0435 24.9121C54.0084 24.7279 53.9996 24.5349 53.9996 24.3507C53.9821 23.5349 53.9821 22.7103 53.9909 21.8946Z" fill="#666666"/>
<path d="M28.3856 79.7279C28.3856 80.1928 28.4032 80.6577 28.3856 81.1314C28.3505 81.956 27.8944 82.3156 26.9295 82.2981C26.1488 82.2806 25.7716 81.8946 25.754 81.0963C25.7365 80.07 25.447 79.7806 24.4207 79.7542C23.5786 79.7367 23.2014 79.3595 23.2014 78.5086C23.2014 77.649 23.2014 76.7893 23.2014 75.9297C23.2014 74.8683 23.5172 74.5612 24.5962 74.57C24.7716 74.57 24.947 74.5525 25.1137 74.6314C25.4909 74.8156 25.754 75.0788 25.7716 75.5349C25.7804 75.7718 25.7716 75.9998 25.8154 76.2279C25.9119 76.8069 26.2453 77.0876 26.833 77.1139C26.947 77.1227 27.0698 77.1139 27.1839 77.1227C27.9558 77.1577 28.3681 77.5525 28.3856 78.3332C28.4032 78.7981 28.3856 79.263 28.3856 79.7279Z" fill="#666666"/>
<path d="M59.1661 84.8943C59.1661 85.3855 59.1749 85.8855 59.1661 86.3767C59.1574 87.0171 58.7802 87.4294 58.1398 87.4469C57.1223 87.4732 56.096 87.4732 55.0784 87.4469C54.4468 87.4381 54.017 87.0171 53.9995 86.3504C53.9644 85.3767 53.9644 84.3943 53.9995 83.4206C54.0345 82.6048 54.4468 82.2715 55.2714 82.2627C56.1924 82.2627 57.1047 82.2539 58.0258 82.2627C58.7802 82.2715 59.1486 82.6399 59.1574 83.3943C59.1749 83.903 59.1661 84.403 59.1661 84.8943Z" fill="#666666"/>
<path d="M16.807 38.6311C17.7281 38.6311 18.6491 38.6223 19.5702 38.6311C20.2983 38.6399 20.6842 39.0872 20.6842 39.903C20.6842 40.7013 20.2807 41.1662 19.579 41.1925C19.4649 41.1925 19.3421 41.1925 19.2281 41.2013C18.5439 41.2364 18.1842 41.5609 18.0965 42.2364C18.0702 42.4381 18.0877 42.6486 18.0614 42.8504C18.0088 43.3504 17.6404 43.71 17.1404 43.7364C16.8948 43.7539 16.6404 43.7539 16.3948 43.7364C15.9386 43.7013 15.579 43.3504 15.5088 42.903C15.4913 42.789 15.5 42.6662 15.4913 42.5521C15.4649 41.5609 15.1228 41.21 14.1316 41.2013C13.5965 41.1925 13.1842 41.0258 12.9825 40.5083C12.7544 39.9469 12.9035 39.2451 13.2807 38.8767C13.4913 38.675 13.7281 38.6223 14 38.6311C14.9386 38.6311 15.8772 38.6311 16.807 38.6311Z" fill="#666666"/>
<path d="M46.316 77.2018C45.851 77.2018 45.3861 77.2193 44.9125 77.2018C44.1493 77.1755 43.7282 76.7369 43.7195 75.9825C43.7107 75.0965 43.7107 74.2018 43.7195 73.3158C43.7282 72.386 44.0967 72.0264 45.0265 72.0264C45.9914 72.0264 46.3423 72.3772 46.3511 73.3334C46.3511 73.6579 46.3774 73.9737 46.6054 74.2369C46.8598 74.5176 47.1932 74.579 47.5616 74.579C48.6932 74.579 49.2633 75.4474 48.8335 76.5088C48.6318 77.0001 48.2107 77.1843 47.7107 77.2018C47.2546 77.2106 46.7809 77.2018 46.316 77.2018Z" fill="#666666"/>
<path d="M45.0437 28.3945C44.2016 28.3945 43.3507 28.3857 42.5086 28.3945C41.07 28.4033 40.9823 27.1577 41.3332 26.2892C41.4823 25.9296 41.8419 25.7629 42.2279 25.7629C44.1051 25.7542 45.9911 25.7542 47.8683 25.7629C48.4823 25.7717 48.8683 26.1752 48.9121 26.7892C48.9911 27.9735 48.5963 28.3857 47.4121 28.3945C46.6139 28.3945 45.8332 28.3945 45.0437 28.3945Z" fill="#666666"/>
<path d="M59.1575 2.62255C59.64 2.62255 60.1224 2.61378 60.6049 2.62255C61.3154 2.64009 61.7716 3.06992 61.7803 3.7629C61.7979 4.72781 61.7979 5.69273 61.7803 6.65764C61.7628 7.46466 61.3067 7.81553 60.3593 7.80676C59.5786 7.79799 59.1663 7.39448 59.1575 6.62255C59.14 5.55238 58.8768 5.28922 57.8067 5.2629C56.9382 5.23659 56.5961 4.84185 56.6049 3.85939C56.6137 3.03483 56.9909 2.64009 57.7979 2.63132C58.2453 2.62255 58.7014 2.62255 59.1575 2.62255Z" fill="#666666"/>
<path d="M33.4733 23.2279C32.9733 23.2279 32.4821 23.2366 31.9821 23.2279C31.3154 23.2103 30.9382 22.8244 30.9207 22.1577C30.9207 22.0437 30.9207 21.9209 30.9207 21.8068C30.9294 21.0349 31.3329 20.5788 32.1049 20.6138C33.1312 20.6577 33.4996 20.1138 33.4733 19.2454C33.447 18.5173 33.8856 18.0788 34.5786 18.0524C35.5435 18.0173 36.0522 18.3682 36.0873 19.1665C36.1224 20.1314 36.1224 21.0875 36.0873 22.0524C36.0522 22.877 35.6487 23.2279 34.8329 23.2366C34.3768 23.2279 33.9207 23.2279 33.4733 23.2279Z" fill="#666666"/>
<path d="M25.745 56.6223C25.2626 56.6223 24.7801 56.6311 24.2977 56.6223C23.6047 56.6048 23.2275 56.2101 23.21 55.5259C23.21 55.4381 23.21 55.3504 23.21 55.2627C23.2187 54.403 23.6047 54.0083 24.4643 53.9908C25.4468 53.9732 25.745 53.6837 25.7538 52.7101C25.7626 51.868 26.1573 51.4469 26.9643 51.4381C27.9205 51.4294 28.3679 51.8153 28.3854 52.6925C28.4029 53.5873 28.4029 54.4732 28.3854 55.368C28.3679 56.2188 27.9468 56.6136 27.0959 56.6223C26.6486 56.6223 26.1924 56.6223 25.745 56.6223Z" fill="#666666"/>
<path d="M23.2102 69.421C23.2102 68.921 23.2014 68.4298 23.2102 67.9298C23.2102 67.7719 23.2277 67.6052 23.2891 67.4561C23.4909 66.9561 24.1663 66.7192 24.9295 66.8684C25.4558 66.9736 25.7453 67.3333 25.7716 67.8859C25.7804 68.1052 25.7804 68.3245 25.8155 68.535C25.9207 69.0877 26.254 69.3596 26.8155 69.3859C26.9032 69.3859 26.9909 69.3859 27.0786 69.3859C27.5611 69.3859 27.9997 69.5087 28.219 69.9648C28.4733 70.4736 28.4646 71.0175 28.1751 71.5175C27.9821 71.8596 27.64 72.0087 27.254 72.0087C26.2804 72.0175 25.2979 72.0263 24.3242 72.0087C23.5786 71.9912 23.2102 71.5877 23.2014 70.842C23.2014 70.3859 23.2102 69.9035 23.2102 69.421Z" fill="#666666"/>
<path d="M50.1842 82.2984C49.2982 82.2984 48.4035 82.2897 47.5175 82.2984C47 82.2984 46.5965 82.1318 46.3947 81.6318C46.1667 81.0791 46.2982 80.3423 46.6667 79.9914C46.8684 79.7984 47.1053 79.7283 47.386 79.7283C49.2719 79.7283 51.1491 79.7195 53.0351 79.737C53.7017 79.737 54.0702 80.202 54.0789 80.9827C54.0877 81.7721 53.7105 82.2721 53.0438 82.2897C52.0877 82.316 51.1403 82.2984 50.1842 82.2984Z" fill="#666666"/>
<path d="M2.63135 33.447C2.63135 32.9645 2.62257 32.482 2.63135 31.9996C2.64889 31.3154 3.06117 30.9294 3.73661 30.9119C3.86819 30.9119 3.99977 30.9119 4.13135 30.9119C4.82433 30.9294 5.22784 31.2891 5.24538 31.982C5.2717 32.9908 5.2717 33.9996 5.24538 35.0084C5.22784 35.7101 4.72784 36.1048 3.92082 36.0961C3.12257 36.0873 2.64889 35.6926 2.62257 34.9733C2.6138 34.4733 2.63135 33.9645 2.63135 33.447Z" fill="#666666"/>
<path d="M36.0434 15.5176C35.5609 15.5176 35.0784 15.5263 34.596 15.5176C33.8855 15.5 33.4907 15.1053 33.4644 14.4035C33.4293 13.2544 33.7977 12.886 34.9644 12.886C35.7714 12.886 36.5697 12.886 37.3767 12.886C37.8592 12.886 38.2977 13.0088 38.5083 13.4825C38.7363 13.9825 38.7539 14.5088 38.482 15C38.2977 15.3421 37.9732 15.5176 37.5784 15.5176C37.0697 15.5176 36.5521 15.5176 36.0434 15.5176Z" fill="#666666"/>
<path d="M64.2981 87.4645C63.8332 87.4645 63.3596 87.4732 62.8946 87.4645C62.1139 87.4469 61.7017 86.9908 61.7017 86.1574C61.7017 85.3153 62.1052 84.8417 62.8771 84.8329C63.842 84.8153 64.8069 84.8241 65.7718 84.8329C66.4648 84.8417 66.8596 85.2364 66.8859 85.9206C66.9297 87.1224 66.6052 87.4645 65.4034 87.4732C65.0262 87.4645 64.6578 87.4645 64.2981 87.4645Z" fill="#666666"/>
<path d="M51.4559 2.62279C51.9559 2.62279 52.4472 2.60524 52.9472 2.62279C53.6752 2.6491 54.07 3.10524 54.07 3.90349C54.0787 4.73682 53.6928 5.22805 52.9735 5.24559C51.9822 5.27191 50.991 5.26314 49.9998 5.24559C49.3068 5.22805 48.9121 4.79823 48.8945 4.09647C48.8945 3.94735 48.8858 3.807 48.8945 3.65788C48.9208 3.07016 49.3419 2.64033 49.9296 2.62279C50.4384 2.61402 50.9472 2.63156 51.4559 2.62279Z" fill="#666666"/>
<path d="M38.6489 64.342C38.6489 64.8245 38.6577 65.3069 38.6489 65.7894C38.6314 66.4736 38.2366 66.8596 37.5436 66.8859C36.377 66.9297 36.0173 66.5789 36.0173 65.4122C36.0173 64.5964 36.0086 63.7806 36.0173 62.9648C36.0261 62.1227 36.4735 61.7017 37.3419 61.7017C38.184 61.7017 38.6314 62.1315 38.6401 62.9473C38.6577 63.4034 38.6489 63.8771 38.6489 64.342Z" fill="#666666"/>
<path d="M28.3423 87.4648C27.8774 87.4648 27.4124 87.4736 26.9388 87.4648C26.123 87.4473 25.7458 87.0087 25.7545 86.0789C25.7633 85.2631 26.1581 84.842 26.9388 84.8332C27.8598 84.8245 28.7809 84.8245 29.6931 84.8332C30.5528 84.842 30.93 85.2631 30.93 86.1753C30.93 87.0262 30.5177 87.456 29.6844 87.4736C29.2458 87.4648 28.7896 87.4648 28.3423 87.4648Z" fill="#666666"/>
<path d="M64.3244 43.7454C64.3244 44.2454 64.3332 44.7367 64.3244 45.2367C64.3068 45.9121 63.8946 46.3156 63.2279 46.3595C62.3332 46.4121 61.7893 46.1051 61.7279 45.3858C61.6402 44.3156 61.6402 43.2279 61.7279 42.1577C61.7893 41.3946 62.3507 41.0963 63.3332 41.184C63.9472 41.2367 64.3068 41.6577 64.3244 42.3507C64.3332 42.8156 64.3332 43.2805 64.3244 43.7454Z" fill="#666666"/>
<path d="M87.4558 51.4822C87.4558 51.9647 87.4646 52.4471 87.4558 52.9208C87.4295 53.6664 86.9646 54.0612 86.1488 54.0612C85.3242 54.0612 84.8418 53.6752 84.833 52.9384C84.8154 51.9647 84.8154 50.991 84.833 50.0085C84.8505 49.2278 85.3067 48.877 86.219 48.877C86.9997 48.8857 87.4295 49.2717 87.4558 50.0348C87.4646 50.2805 87.4558 50.5261 87.4558 50.7805C87.4646 51.0173 87.4646 51.2541 87.4558 51.4822C87.4646 51.4822 87.4646 51.4822 87.4558 51.4822Z" fill="#666666"/>
<path d="M7.80681 28.3595C7.80681 28.8595 7.81558 29.3507 7.80681 29.8507C7.78926 30.4647 7.38575 30.877 6.76295 30.9296C5.9033 31.0086 5.3419 30.7367 5.25418 30.0875C5.10505 28.9296 5.10505 27.7542 5.25418 26.5963C5.3419 25.9384 5.89453 25.684 6.80681 25.7542C7.41207 25.8068 7.78049 26.2016 7.80681 26.8156C7.81558 27.0788 7.80681 27.3419 7.80681 27.6051C7.80681 27.8682 7.80681 28.1138 7.80681 28.3595Z" fill="#666666"/>
<path d="M41.193 18.0784C41.193 18.5784 41.2018 19.0697 41.193 19.5697C41.1842 20.1925 40.7807 20.6048 40.1228 20.6749C39.3597 20.7626 38.8158 20.4732 38.6579 19.8767C38.6141 19.71 38.579 19.5346 38.579 19.3591C38.5702 18.4995 38.5614 17.6398 38.579 16.7714C38.6053 15.4293 39.6316 15.3241 40.6141 15.6135C41 15.7276 41.2106 16.0697 41.2018 16.4995C41.193 17.0258 41.193 17.5521 41.193 18.0784Z" fill="#666666"/>
<path d="M12.9295 66.8771C12.4295 66.8771 11.9383 66.8858 11.4383 66.8771C10.6751 66.8595 10.333 66.4385 10.333 65.5613C10.333 64.7279 10.7014 64.3156 11.447 64.3069C12.4383 64.2981 13.4295 64.2981 14.4207 64.3069C15.0874 64.3156 15.4821 64.6928 15.5084 65.3595C15.5172 65.5525 15.5172 65.7367 15.4997 65.9297C15.447 66.4999 15.0611 66.8595 14.4909 66.8771C13.9734 66.8858 13.447 66.8771 12.9295 66.8771Z" fill="#666666"/>
<path d="M20.6577 23.2102C21.1577 23.2102 21.6489 23.2014 22.1402 23.2102C22.2981 23.2102 22.4647 23.2277 22.6051 23.2891C23.1051 23.4909 23.3244 24.1049 23.2016 24.8856C23.1226 25.3944 22.7542 25.7628 22.2191 25.7716C21.1577 25.7891 20.0875 25.7891 19.0261 25.7716C18.456 25.7628 18.0788 25.3593 18.0437 24.7979C18.0261 24.5962 18.0261 24.3856 18.0437 24.1839C18.0963 23.5962 18.4823 23.2365 19.0788 23.2102C19.1051 23.2102 19.1402 23.2102 19.1665 23.2102C19.6665 23.2102 20.1665 23.2102 20.6577 23.2102Z" fill="#666666"/>
<path d="M20.658 64.3066C21.158 64.3066 21.6492 64.2979 22.1404 64.3066C22.2983 64.3066 22.465 64.3242 22.6141 64.3768C23.1141 64.5786 23.3334 65.1838 23.2194 65.9733C23.1404 66.4821 22.772 66.8505 22.2369 66.868C21.1755 66.8856 20.1053 66.8856 19.0439 66.868C18.4738 66.8593 18.0966 66.4558 18.0527 65.8944C18.0352 65.6926 18.0352 65.4821 18.0527 65.2803C18.1053 64.6926 18.4913 64.3154 19.079 64.3066C19.6053 64.2979 20.1317 64.3066 20.658 64.3066Z" fill="#666666"/>
<path d="M69.4297 84.8419C68.8946 84.8419 68.3507 84.8507 67.8156 84.8419C67.3507 84.8331 67.0437 84.5787 66.9209 84.1401C66.8156 83.7717 66.8156 83.3858 66.9121 83.0173C67.0262 82.5787 67.4121 82.2893 67.8858 82.2805C68.9209 82.2629 69.956 82.2629 70.9911 82.2805C71.5788 82.2893 71.9998 82.7191 72.0349 83.3068C72.0437 83.491 72.0525 83.684 72.0349 83.877C71.9823 84.4735 71.5963 84.8331 71.0086 84.8507C70.9823 84.8507 70.9472 84.8507 70.9209 84.8507C70.4209 84.8419 69.9297 84.8419 69.4297 84.8419Z" fill="#666666"/>
<path d="M5.21018 41.1925C4.71018 41.1925 4.21896 41.2013 3.71896 41.1925C2.99089 41.175 2.61369 40.7013 2.62246 39.8592C2.63124 39.0609 2.99966 38.6399 3.72773 38.6399C4.7365 38.6311 5.74527 38.6311 6.74527 38.6399C7.39439 38.6487 7.76281 39.0171 7.7979 39.675C7.86808 40.8241 7.50843 41.2013 6.34176 41.2013C6.28036 41.2013 6.22773 41.2013 6.16632 41.2013C5.85053 41.2013 5.52597 41.2013 5.21018 41.1925Z" fill="#666666"/>
<path d="M66.8773 18.0787C66.8773 18.5875 66.8861 19.0962 66.8773 19.605C66.8598 20.2804 66.3685 20.6752 65.5966 20.6752C64.8247 20.6752 64.3247 20.2717 64.3159 19.605C64.2983 18.5699 64.2983 17.5348 64.3159 16.4997C64.3247 15.912 64.7194 15.5261 65.3071 15.4997C65.5001 15.491 65.6843 15.491 65.8773 15.4997C66.465 15.5261 66.8598 15.912 66.8773 16.4997C66.8861 17.0261 66.8773 17.5524 66.8773 18.0787Z" fill="#666666"/>
<path d="M2.62231 45.0345C2.62231 44.1223 3.02582 43.7188 3.92933 43.7188C4.82407 43.7188 5.25389 44.131 5.25389 45.017C5.25389 45.938 4.84161 46.3591 3.92056 46.3591C3.04337 46.3591 2.62231 45.9381 2.62231 45.0345Z" fill="#666666"/>
<path d="M19.3417 56.6229C18.4294 56.6229 18.0435 56.2282 18.0435 55.3159C18.0435 54.4124 18.4821 53.9738 19.3856 53.9826C20.254 53.9913 20.675 54.4299 20.675 55.3334C20.6838 56.2106 20.2452 56.6229 19.3417 56.6229Z" fill="#666666"/>
<path d="M52.7713 74.5702C53.6748 74.5702 54.0783 74.9825 54.0696 75.886C54.0608 76.772 53.631 77.2106 52.7538 77.2106C51.8766 77.2106 51.438 76.772 51.438 75.886C51.438 74.9474 51.8239 74.5614 52.7713 74.5702Z" fill="#666666"/>
<path d="M41.1753 86.1493C41.1753 85.2282 41.5613 84.8335 42.4648 84.8335C43.377 84.8335 43.8156 85.2721 43.8069 86.1668C43.7981 87.044 43.3595 87.4739 42.4735 87.4739C41.57 87.4563 41.1753 87.0616 41.1753 86.1493Z" fill="#666666"/>
<path d="M48.8855 86.1315C48.8855 85.2104 49.2715 84.8245 50.1837 84.8245C51.0785 84.8245 51.5258 85.2718 51.5171 86.1227C51.4995 87.035 51.0873 87.456 50.2188 87.456C49.2802 87.4648 48.8855 87.0789 48.8855 86.1315Z" fill="#666666"/>
<path d="M27.0526 23.2277C26.1228 23.2277 25.7544 22.8592 25.7544 21.9294C25.7544 21.0171 26.1842 20.5873 27.0877 20.5961C27.9386 20.6049 28.386 21.0434 28.386 21.8943C28.3947 22.7978 27.9649 23.2277 27.0526 23.2277Z" fill="#666666"/>
<path d="M82.2808 55.2894C82.2808 54.3947 82.693 53.9912 83.5966 53.9824C84.4562 53.9824 84.9211 54.4561 84.9123 55.3158C84.9036 56.2105 84.4737 56.6228 83.5439 56.6228C82.6404 56.614 82.2808 56.2368 82.2808 55.2894Z" fill="#666666"/>
<path d="M68.1929 25.7628C69.0701 25.7628 69.5 26.2014 69.4912 27.0874C69.4912 27.9558 69.035 28.3944 68.1578 28.3944C67.2719 28.3944 66.8508 27.9558 66.8508 27.026C66.8596 26.1225 67.2456 25.7541 68.1929 25.7628Z" fill="#666666"/>
<path d="M51.438 27.0611C51.438 26.14 51.8415 25.7541 52.7889 25.7628C53.6661 25.7716 54.0696 26.1751 54.0696 27.0523C54.0696 27.9646 53.631 28.4032 52.7362 28.3944C51.8678 28.3856 51.438 27.9383 51.438 27.0611Z" fill="#666666"/>
<path d="M37.3684 25.7628C38.2632 25.7716 38.6491 26.1751 38.6491 27.0962C38.6491 27.9646 38.2018 28.4032 37.3158 28.3944C36.4298 28.3944 36.0088 27.9471 36.0088 27.0172C36.0263 26.14 36.4386 25.7541 37.3684 25.7628Z" fill="#666666"/>
<path d="M66.8591 37.2978C66.8591 36.4381 67.3065 36.0171 68.1925 36.0171C69.0697 36.0259 69.4995 36.4645 69.4907 37.3504C69.4819 38.2188 69.0433 38.6487 68.1661 38.6487C67.2451 38.6487 66.8591 38.2452 66.8591 37.2978Z" fill="#666666"/>
<path d="M64.333 37.3157C64.333 38.2543 63.9383 38.6578 63.0172 38.6578C62.14 38.6578 61.7014 38.2192 61.7014 37.342C61.7014 36.4649 62.1312 36.0263 63.0084 36.0263C63.8944 36.0175 64.333 36.4473 64.333 37.3157Z" fill="#666666"/>
<path d="M29.6576 18.0435C30.5524 18.0522 30.9383 18.4645 30.9383 19.3856C30.9296 20.2452 30.4822 20.6838 29.5875 20.675C28.7103 20.6663 28.2892 20.2101 28.298 19.2803C28.3155 18.4557 28.7804 18.0435 29.6576 18.0435Z" fill="#666666"/>
<path d="M33.4908 3.96482C33.4908 4.88588 33.1049 5.26307 32.1838 5.26307C31.254 5.26307 30.9207 4.89465 30.9207 3.89465C30.9207 2.96482 31.2803 2.61395 32.2277 2.62272C33.1312 2.63149 33.4908 3.00868 33.4908 3.96482Z" fill="#666666"/>
<path d="M18.0435 29.6314C18.0435 28.7455 18.4733 28.3157 19.3505 28.3069C20.2277 28.3069 20.675 28.7455 20.675 29.6227C20.675 30.4999 20.2364 30.9385 19.3592 30.9385C18.4557 30.9385 18.0522 30.535 18.0435 29.6314Z" fill="#666666"/>
<path d="M10.3333 37.3155C10.3333 36.4383 10.7718 36.0084 11.6578 36.0172C12.5262 36.0172 12.9648 36.4558 12.9648 37.3067C12.9648 38.2277 12.535 38.6576 11.6315 38.6488C10.7455 38.6488 10.3333 38.2277 10.3333 37.3155Z" fill="#666666"/>
<path d="M74.5875 52.737C74.5875 53.6843 74.2103 54.0703 73.2717 54.0703C72.377 54.0703 72.0173 53.6931 72.0173 52.7457C72.0173 51.8159 72.377 51.4387 73.298 51.4387C74.2103 51.4387 74.5875 51.8159 74.5875 52.737Z" fill="#666666"/>
<path d="M56.6224 6.49071C56.6224 7.42931 56.254 7.8065 55.3505 7.8065C54.4295 7.8065 53.9996 7.39422 53.9909 6.49949C53.9821 5.60475 54.3681 5.23633 55.3154 5.23633C56.2891 5.23633 56.6224 5.56089 56.6224 6.49071Z" fill="#666666"/>
<path d="M45.0701 84.8509C44.0964 84.8509 43.728 84.5176 43.728 83.6229C43.728 82.6843 44.114 82.2808 45.035 82.2808C45.9649 82.2808 46.3596 82.6755 46.3596 83.6053C46.3596 84.5001 46 84.8422 45.0701 84.8509Z" fill="#666666"/>
<path d="M29.6053 7.8065C28.7018 7.8065 28.2983 7.39422 28.307 6.49071C28.3158 5.58721 28.693 5.23633 29.6491 5.23633C30.5877 5.23633 30.9474 5.59598 30.9474 6.5258C30.9386 7.42931 30.5351 7.8065 29.6053 7.8065Z" fill="#666666"/>
<path d="M75.8858 79.7278C76.8507 79.6226 77.2103 80.3419 77.2016 81.0173C77.1928 81.8682 76.7542 82.298 75.8507 82.298C74.9384 82.298 74.5612 81.9208 74.57 80.991C74.57 80.0699 74.9296 79.7278 75.8858 79.7278Z" fill="#666666"/>
<path d="M23.21 19.3154C23.21 18.4031 23.5872 18.0435 24.5258 18.0435C25.4205 18.0435 25.7889 18.4294 25.7801 19.3768C25.7801 20.2364 25.3503 20.6663 24.5082 20.675C23.6135 20.6838 23.21 20.254 23.21 19.3154Z" fill="#666666"/>
<path d="M9.08731 33.482C8.11362 33.482 7.78906 33.1663 7.78906 32.2101C7.78906 31.2452 8.11362 30.9119 9.06099 30.9119C10.0259 30.9119 10.3592 31.2364 10.3592 32.1838C10.3592 33.1575 10.0434 33.482 9.08731 33.482Z" fill="#666666"/>
<path d="M33.4908 16.7629C33.4908 17.7366 33.1663 18.0699 32.2277 18.0699C31.254 18.0699 30.9207 17.7454 30.9207 16.8068C30.9207 15.8331 31.2364 15.4998 32.1838 15.4998C33.1487 15.4998 33.4821 15.8243 33.4908 16.7629Z" fill="#666666"/>
<path d="M82.2977 57.9034C82.2977 58.842 81.9644 59.1666 80.9907 59.1666C80.0433 59.1666 79.7275 58.8333 79.7275 57.8596C79.7275 56.9122 80.0609 56.5964 81.0346 56.5964C81.9731 56.6052 82.2977 56.9385 82.2977 57.9034Z" fill="#666666"/>
<path d="M32.1577 84.8509C31.2279 84.8509 30.9209 84.5264 30.9209 83.5702C30.9209 82.6053 31.2455 82.2808 32.2016 82.2808C33.149 82.2808 33.4911 82.6404 33.4911 83.6141C33.4823 84.5439 33.1577 84.8509 32.1577 84.8509Z" fill="#666666"/>
<path d="M32.2277 7.78906C33.1399 7.78906 33.482 8.15748 33.482 9.11362C33.482 10.0434 33.1399 10.368 32.1663 10.3592C31.2364 10.3592 30.9119 10.0171 30.9119 9.04345C30.9206 8.10485 31.254 7.78906 32.2277 7.78906Z" fill="#666666"/>
<path d="M65.6134 56.6049C66.552 56.6049 66.8766 56.947 66.8766 57.9119C66.8766 58.8505 66.5432 59.1751 65.5696 59.1751C64.6222 59.1751 64.3064 58.8417 64.3064 57.8681C64.3064 56.9295 64.6485 56.5961 65.6134 56.6049Z" fill="#666666"/>
<path d="M72.0432 70.7456C72.0432 71.6403 71.6309 72.0438 70.7186 72.035C69.8414 72.035 69.4116 71.5877 69.4116 70.7017C69.4116 69.8333 69.8678 69.3947 70.7537 69.4034C71.6221 69.4122 72.0432 69.8596 72.0432 70.7456Z" fill="#666666"/>
<path d="M53.6227 45.1575C53.6841 46.6751 53.6403 48.1926 53.5438 49.7102C53.3947 52.0435 52.035 53.3944 49.6842 53.5435C47.4561 53.6839 45.2192 53.6838 42.9912 53.6137C41.8333 53.5786 40.6578 53.6838 39.5087 53.4031C38.1578 53.0698 37.2192 52.2979 36.7894 50.947C36.6491 50.5172 36.5701 50.0698 36.5438 49.6137C36.4385 47.3417 36.4385 45.061 36.4736 42.7891C36.4912 41.7453 36.4473 40.6838 36.6666 39.6488C37.0877 37.7365 38.4122 36.6224 40.3684 36.5435C42.8157 36.4382 45.2719 36.4207 47.7192 36.4821C48.5877 36.4996 49.4736 36.4558 50.3333 36.6312C52.3157 37.0347 53.4912 38.4031 53.5438 40.4382C53.5964 42.0084 53.6841 43.5786 53.6227 45.1575ZM45.0526 50.3067C47.9473 50.3067 50.3157 47.9295 50.307 45.026C50.2982 42.1488 47.9385 39.7891 45.0613 39.7803C42.1666 39.7716 39.7894 42.14 39.7894 45.0347C39.7806 47.9382 42.1491 50.3067 45.0526 50.3067ZM50.5701 40.6488C51.2368 40.6488 51.7631 40.1049 51.7543 39.4382C51.7456 38.8593 51.1929 38.3154 50.614 38.3242C49.9473 38.333 49.421 38.8768 49.4298 39.5347C49.4561 40.1488 49.9649 40.6488 50.5701 40.6488Z" fill="#666666"/>
<path d="M7.7893 11.6139C7.7893 10.7542 7.78053 9.89456 7.7893 9.02614C7.79807 8.24543 8.23667 7.79807 9.0086 7.78929C10.763 7.78052 12.5174 7.78052 14.263 7.78929C15.0349 7.78929 15.4998 8.24543 15.5086 9.00859C15.5174 10.7454 15.5174 12.4823 15.5086 14.2191C15.4998 15.0525 15.0612 15.4998 14.2367 15.5086C12.4998 15.5174 10.763 15.5174 9.02614 15.5086C8.23667 15.4998 7.79807 15.0349 7.7893 14.2367C7.78053 13.3682 7.7893 12.491 7.7893 11.6139Z" fill="#666666"/>
<path d="M78.4297 7.78905C79.2894 7.78905 80.149 7.78028 81.0174 7.78905C81.8508 7.79783 82.2894 8.22765 82.2981 9.06098C82.3069 10.7803 82.3069 12.5084 82.2981 14.2277C82.2981 15.0522 81.8508 15.5084 81.0262 15.5171C79.3157 15.5259 77.6052 15.5259 75.9034 15.5171C74.9999 15.5084 74.5788 15.0698 74.5701 14.1487C74.5701 12.482 74.5701 10.8154 74.5701 9.15748C74.5701 8.21888 74.9999 7.78905 75.9385 7.78905C76.7718 7.78905 77.5964 7.78905 78.4297 7.78905Z" fill="#666666"/>
<path d="M11.6142 82.2979C10.7371 82.2979 9.85986 82.3067 8.99144 82.2979C8.27214 82.2891 7.80723 81.8505 7.79846 81.1312C7.78092 79.333 7.78969 77.5435 7.79846 75.7453C7.80723 75.0435 8.28091 74.5698 9.00021 74.5698C10.7634 74.561 12.5265 74.561 14.2985 74.5698C15.0178 74.5698 15.509 75.0172 15.5178 75.7277C15.5353 77.5347 15.5441 79.3417 15.5178 81.1575C15.509 81.8768 15.0178 82.2979 14.2985 82.2979C13.395 82.2979 12.5002 82.2979 11.6142 82.2979Z" fill="#666666"/>
<path d="M45.0432 41.5353C46.9204 41.4301 48.5871 43.1757 48.5783 45.0441C48.5695 46.9388 46.9379 48.5967 44.9993 48.5792C43.2011 48.5704 41.4818 46.9564 41.5081 45.009C41.5344 43.1669 43.1572 41.4301 45.0432 41.5353Z" fill="#666666"/>
</svg>
